<?xml version="1.0" encoding="UTF-8"?>
<svg id="Layer_1" data-name="Layer 1" xmlns="http://www.w3.org/2000/svg" viewBox="0 0 1080 1080">
  <defs>
    <style>
      .cls-1 {
        stroke-width: 0px;
      }
    </style>
  </defs>
  <path class="cls-1" d="m904.53,554.93c.36-5.97.61-10.09.89-14.74h20.76c.29,4.73.55,9.12.89,14.74,20.41,0,40.29,0,60.16,0,7.01,0,14.04-.23,21.04.12,22.45,1.12,38.71,16.69,41.01,39.03.25,2.44.35,4.91.35,7.36.01,102.26-.01,204.52.03,306.78,0,14.49-3.69,28.01-16.09,35.9-8.12,5.16-18.6,8.98-28.11,9.16-47.67.91-95.37.42-144.49.42,1.41,3.17,2.21,5.62,3.5,7.78,4.67,7.84,10.21,15.24,14.12,23.43,6.55,13.7,14.7,21.36,31.88,20.23,17.09-1.13,30.3,14.63,30.5,31.26.19,16.24-11.96,30-28.73,32.42-2.42.35-4.9.36-7.35.36-62.78.02-125.56.12-188.34-.04-24.42-.06-40.11-18.61-34.65-40.31,3.68-14.61,16.33-25.12,32.83-23.99,12.86.88,19.76-3.79,25.33-14.74,6.11-12.02,13.91-23.18,22-36.39h-13.49c-43.84,0-87.68.07-131.52-.03-27.56-.06-44.66-17.03-44.68-44.62-.09-102.96-.09-205.92,0-308.88.02-27.89,17.34-45.15,45.49-45.19,91.19-.12,182.37-.05,273.56-.05,4.12,0,8.23,0,13.08,0Zm122.96,306.72v-11.36c0-82.24.01-164.48,0-246.72,0-20-6.29-26.28-26.55-26.28-126.63-.03-253.25-.03-379.88,0-20.64,0-27,6.43-27.01,27.1-.02,81.89-.02,163.78.01,245.66,0,3.7.32,7.39.49,11.17h89.6c0-19.06-.21-37.31.05-55.56.44-32.32,24.96-58.14,56.95-58.57,46.64-.63,93.31-.66,139.95.02,30.37.44,54.55,24.51,56.14,54.83.85,16.12.28,32.32.44,48.49.04,3.68.42,7.35.65,11.22h89.16Zm-433.46,22.78c0,6.54,0,11.8,0,17.05,0,24.99,5.53,30.6,30.16,30.6,124.53,0,249.06,0,373.59-.01,3.85,0,7.77.23,11.55-.35,9.65-1.48,16.63-6.92,17.67-16.77,1.05-9.96.23-20.11.23-30.53h-433.21Zm321.73-22.93c0-19.1.27-37.33-.07-55.56-.39-20.81-14.73-36.28-35.7-36.57-45.94-.63-91.89-.6-137.83-.03-20.69.26-34.96,14.56-35.99,35.2-.84,16.83-.45,33.73-.01,50.59.06,2.33,3.35,6.39,5.39,6.54,9.3.71,18.69.31,29.13.31v-37.3h21.91v36.67h96.69v-36.45h22.47v36.58h34.02Zm-104.85,185.28c30.14,0,60.27,0,90.41,0,2.8,0,6.33.92,8.24-.42,3.56-2.5,8.54-6.37,8.51-9.63-.03-3.28-4.99-7.22-8.63-9.52-2.29-1.44-6.14-.46-9.29-.46-59.57-.01-119.14-.02-178.71.02-3.84,0-8.33-.8-11.35.88-3.09,1.71-6.55,6.03-6.54,9.19.02,3.15,3.61,7.07,6.66,9.15,2.23,1.52,6.11.77,9.25.77,30.49.04,60.97.02,91.46.02Zm-53.49-43.23h106.98c-4.26-6.94-7.6-12.62-11.18-18.14-6.83-10.53-11.59-25.06-21.31-30.29-9.83-5.29-24.61-1.33-37.23-1.41-1.05,0-2.22-.26-3.13.1-1.82.72-4.23,1.33-5.14,2.78-9.64,15.3-19.04,30.76-28.99,46.97Z"/>
  <path class="cls-1" d="m315.75,953.7c10.55,17.15,19.9,32.64,29.7,47.84,1.14,1.78,4.69,2.52,7.21,2.77,4.52.46,9.13-.1,13.66.26,17.36,1.37,30.43,14.85,30.83,31.58.4,16.53-12.33,30.69-29.58,32.77-2.77.33-5.6.26-8.41.26-61.38.01-122.76.09-184.13-.12-6.19-.02-12.75-.77-18.48-2.94-13.45-5.11-21.52-20.12-19.38-33.98,2.29-14.85,14.93-28.28,30.27-27.05,17.18,1.37,25.21-6.57,31.91-20.18,5.03-10.22,11.69-19.64,18.71-31.2-5.72,0-9.4,0-13.09,0-43.84,0-87.68.05-131.52-.02-27.61-.05-45.04-16.72-45.1-44.38-.24-102.96-.22-205.93-.02-308.89.05-28.14,17.5-45.24,45.46-45.44,25.24-.17,50.47-.04,76.91-.04.34-4.81.64-9.19,1.01-14.45h20.78c.27,4.33.53,8.45.9,14.45h11.98c90.14,0,180.27-.01,270.41,0,33.75,0,49.75,15.91,49.75,49.45.02,100.15-.64,200.31.41,300.45.31,29.46-19.23,50.33-49.37,49.25-42.73-1.52-85.56-.39-128.35-.39h-12.46Zm-175.48-92.33c0-17.87-.14-34.99.03-52.12.37-38.2,24.69-62.3,62.87-62.36,41.04-.06,82.13,1.25,123.1-.37,40.91-1.61,70.54,27.25,67.69,67.63-1.1,15.58-.18,31.3-.18,47.04h90.08c0-4.29,0-7.76,0-11.22,0-81.89.01-163.78-.01-245.66,0-20.63-6.38-27.03-27.09-27.03-126.63-.03-253.25-.03-379.88,0-20.2,0-26.46,6.3-26.47,26.35-.02,82.24,0,164.48,0,246.72v11.01h89.86Zm343.38,23.28H50.41c0,6.68,0,12.61,0,18.55.01,22.93,5.85,28.88,28.46,28.88,125.58,0,251.17,0,376.75,0,3.15,0,6.35.14,9.46-.27,10.36-1.37,17.6-8.14,18.42-18.56.74-9.34.16-18.78.16-28.6Zm-321.32-23.5h34.5v-36.46h21.79v36.59h97.11v-36.59h21.49v36.48h34.31c0-20.48,1.07-40.17-.31-59.68-1.32-18.71-15.52-30.8-34.37-32.21-3.14-.24-6.31-.25-9.46-.25-41.74-.01-83.48-.17-125.22.07-22.34.13-38.38,12.81-39.58,32.6-1.18,19.57-.26,39.26-.26,59.46Zm103.94,185.63c30.84,0,61.67,0,92.51,0,7.56,0,16.02.43,15.88-10.27-.13-9.9-8.12-9.77-15.37-9.77-61.67.01-123.34.02-185.02-.02-7.48,0-15.09.52-14.87,10.32.22,9.84,8.1,9.77,15.41,9.76,30.49-.05,60.97-.02,91.46-.02Zm54.54-42.62c-7.47-12.24-14.97-22.48-20.27-33.75-6.36-13.56-15.6-16.76-30.26-17.43-19.61-.89-32.23,4.38-40.03,22.76-4.09,9.63-10.74,18.17-16.97,28.42h107.52Z"/>
  <path class="cls-1" d="m777.49,236.69h32.56v22.11h-32.56c0,4.88,0,8.62,0,12.35,0,30.93.12,61.85-.04,92.78-.15,29.12-16.75,45.61-45.81,45.66-46.3.08-92.6.07-138.89.11-.69,0-1.38.21-3.31.52,1.11,2.62,1.86,5.1,3.15,7.26,4.66,7.84,10.19,15.25,14.12,23.43,6.58,13.7,14.8,21.22,31.97,20.2,17.55-1.04,30.98,15.51,30.47,32.37-.53,17.45-14.51,31.31-33.12,31.46-43.14.35-86.28.14-129.42.14-21.75,0-43.5.29-65.24-.15-16.87-.34-29.59-11.77-32.23-27.79-2.31-13.97,6.53-29.71,20.51-34.27,6.48-2.12,13.79-2.39,20.71-2.29,6.39.09,10.18-1.95,13.39-7.58,7.64-13.41,15.99-26.42,24.02-39.61.33-.53.22-1.33.57-3.77-3.83,0-7.43,0-11.03,0-43.49,0-86.99.04-130.48-.01-29.78-.04-46.23-16.39-46.35-46.17-.12-30.57-.03-61.15-.03-91.72,0-3.78,0-7.55,0-12.17h-32.2v-22.44h32.2c0-5.31,0-9.41,0-13.5,0-54.47-.02-108.94.01-163.41.02-33.12,16.05-49.34,48.82-49.34,126.62-.02,253.24-.03,379.86,0,32.05,0,48.33,16.44,48.36,48.77.05,54.47.01,108.94.02,163.42v13.67Zm-21.78,80.74v-9.66c0-82.96.02-165.93-.01-248.89,0-19.12-6.66-25.64-26.24-25.64-127.01-.03-254.02-.03-381.03,0-19.92,0-26.23,6.47-26.24,26.68-.02,82.26-.01,164.52.01,246.78,0,3.41.31,6.81.51,10.73h432.99Zm-.03,23.2h-433.49c0,6.47,0,12.07,0,17.68,0,24.01,5.69,29.64,29.92,29.65,124.55,0,249.11,0,373.66,0,3.16,0,6.33.14,9.47-.1,12.34-.94,19.92-8.64,20.38-21.11.32-8.41.06-16.84.06-26.12Zm-216.77,142.03c-30.13,0-60.26,0-90.39,0-2.8,0-6.34-.94-8.24.4-3.54,2.49-8.45,6.34-8.44,9.61.01,3.28,4.89,7.24,8.5,9.55,2.28,1.45,6.14.48,9.29.49,59.56.01,119.12.02,178.68-.02,3.84,0,8.31.76,11.34-.92,3.09-1.71,6.57-6,6.56-9.15-.01-3.17-3.56-7.11-6.6-9.21-2.21-1.53-6.1-.74-9.25-.75-30.48-.04-60.96-.02-91.44-.02Zm53.76-22.6c-6.76-11.14-13.69-20.14-18.03-30.26-7.27-16.95-18.83-21.26-36.8-20.95-16.31.28-26.69,3.9-33.49,19.26-4.8,10.85-12.21,20.55-19.19,31.95h107.51Z"/>
  <path class="cls-1" d="m179.99,237.2h42.4v21.33h-42.4v-21.33Z"/>
  <path class="cls-1" d="m898.28,237.5v21.02h-42.8v-21.02h42.8Z"/>
  <path class="cls-1" d="m172.61,275.38v42.64h-20.49v-42.64h20.49Z"/>
  <path class="cls-1" d="m905.29,318.2v-42.64h20.44v42.64h-20.44Z"/>
  <path class="cls-1" d="m926.29,451.87v42.78h-20.49v-42.78h20.49Z"/>
  <path class="cls-1" d="m151.58,494.6v-42.53h20.52v42.53h-20.52Z"/>
  <path class="cls-1" d="m905.78,363.43h20.2v42.93h-20.2v-42.93Z"/>
  <path class="cls-1" d="m151.89,363.37h20.23v43.19h-20.23v-43.19Z"/>
  <path class="cls-1" d="m744.99,660.51c.13-36.76,29.67-65.98,66.5-65.77,36.05.21,65.4,29.73,65.54,65.92.14,36.35-30.02,66.66-66.23,66.55-36.51-.11-65.94-29.94-65.81-66.71Zm109.87.31c0-24.39-19.78-44.28-43.99-44.27-23.99,0-44.22,20.28-44.22,44.3,0,24.18,19.92,43.99,44.24,43.99,24.52,0,43.98-19.48,43.97-44.02Z"/>
  <path class="cls-1" d="m1005.47,833.21h-52.21v-21.05h30.51v-50.24h21.7v71.29Z"/>
  <path class="cls-1" d="m622.42,679.63h20.76v81.09h-20.76v-81.09Z"/>
  <path class="cls-1" d="m643.25,657.26h-20.5v-28.71h20.5v28.71Z"/>
  <path class="cls-1" d="m332.91,661.5c-.24,36.17-29.66,65.57-65.76,65.71-36.2.14-66.35-30.1-66.28-66.49.07-36.58,29.84-66.1,66.52-65.97,36.61.12,65.77,29.83,65.52,66.75Zm-66.16,43.34c24.37.1,44.31-19.51,44.5-43.74.18-23.99-19.91-44.35-43.97-44.55-24.16-.2-44.14,19.68-44.24,44.02-.1,24.61,19.21,44.17,43.71,44.27Z"/>
  <path class="cls-1" d="m461.63,833.3h-52.17v-20.93h30.26v-50.11h21.92v71.04Z"/>
  <path class="cls-1" d="m78.79,679.61h20.5v81.19h-20.5v-81.19Z"/>
  <path class="cls-1" d="m78.61,656.72v-28.36h20.81v28.36h-20.81Z"/>
  <path class="cls-1" d="m524.21,65.85h22.94c-5.64,18.6,3.38,28.58,18.38,37.38,10.04,5.89,14.17,17.89,14.16,31.1h-17.92c-6.18-7.26-10.46-14.7-16.82-19.11-7.39-5.12-16.23-3.35-23.5,2.38-7.71,6.07-10.01,14.31-7.72,23.57,2.34,9.48,9.07,14.76,18.41,16.61,5.47,1.08,11.3.86,16.52,2.59,17.94,5.95,28.69,18.5,30.88,37.43,2.14,18.49-4.58,34.36-21.03,42.42-11.34,5.55-13,12.61-12.1,22.92.24,2.74-.22,5.54-.4,9.23h-20.42c-.42-.82-1.03-1.44-.98-2,1.34-14.5-.51-25.87-16.56-33.25-12.04-5.53-16.65-19.11-17.34-34.36,4.61,0,8.69.27,12.73-.06,6.01-.5,9.11,1.01,10.95,7.78,2.92,10.73,14.43,16.77,24.8,14.88,10.7-1.95,18.69-11.43,18.77-22.27.09-11.12-7.12-19.88-18.45-22.32-2.05-.44-4.15-.67-6.24-.91-23.09-2.55-39.05-17.09-42.28-38.54-2.99-19.82,8.26-38.55,28.66-47.7,1.28-.57,2.57-1.1,4.56-1.95v-25.83Z"/>
  <path class="cls-1" d="m711.61,217.82h22.13v71.13h-74.99v-20.89h52.85v-50.24Z"/>
  <path class="cls-1" d="m350.64,135.78h20.73v80.93h-20.73v-80.93Z"/>
  <path class="cls-1" d="m350.69,84.32h20.84v28.24h-20.84v-28.24Z"/>
</svg>