<?xml version="1.0" encoding="UTF-8"?>
<svg id="Layer_1" data-name="Layer 1" xmlns="http://www.w3.org/2000/svg" viewBox="0 0 1080 1080">
  <defs>
    <style>
      .cls-1 {
        stroke-width: 0px;
      }
    </style>
  </defs>
  <path class="cls-1" d="m277.98,907.78h94.26v-333.62h-94.26c0,8.53-.25,16.84.07,25.12.36,9.3-3.42,15.1-12.31,18.44-34.18,12.83-68.14,26.23-102.42,38.78-5.06,1.85-11.98,1.82-17.05-.04-34.62-12.65-68.96-26.05-103.43-39.11-7.9-2.99-11.42-8.22-11.38-16.84.22-40.44.22-80.88,0-121.31-.05-8.63,3.47-13.79,11.39-16.8,34.79-13.21,69.45-26.77,104.36-39.66,4.49-1.66,10.66-1.56,15.17.11,34.9,12.9,69.55,26.48,104.36,39.62,8.64,3.26,11.39,9.34,11.3,18.02-.23,22.12-.08,44.24-.08,67.09h94.42V214.47h-94.41c0,8.34-.26,16.36.07,24.35.4,9.7-3.45,15.56-12.89,19.07-34.22,12.73-68.14,26.26-102.39,38.91-4.76,1.76-11.29,1.79-16.04.03-34.58-12.76-68.86-26.32-103.37-39.29-8.51-3.2-11.93-8.5-11.88-17.47.23-40.09.24-80.17,0-120.26-.05-8.98,3.29-14.28,11.84-17.48,34.52-12.92,68.81-26.47,103.4-39.2,4.76-1.75,11.27-1.73,16.03.01,34.28,12.57,68.25,25.95,102.46,38.69,9.33,3.48,13.02,9.38,12.87,19.14-.35,22.04-.11,44.09-.11,67.27,19.44,0,37.63,0,55.83,0,15.12,0,30.25-.06,45.37.02,15.4.08,19.12,3.86,19.12,19.55.03,109.01.01,218.02.02,327.02,0,4.12,0,8.25,0,12.92h89.79v-13.3c0-141.71.06-283.42-.04-425.13-.02-31.6,12.08-56.27,41.05-70.26,9.48-4.58,20.86-7.3,31.39-7.34,138.58-.47,277.15-.46,415.73-.23,42.04.07,72.52,32.09,72.53,75.42.05,282.72.05,565.44-.04,848.15,0,11.91.34,24.07-1.85,35.68-6.26,33.27-34.89,57.35-68.71,57.42-139.63.3-279.26.31-418.89,0-36.72-.08-66.25-27.77-70.31-64.33-.66-5.92-.76-11.93-.76-17.9-.04-125.89-.03-251.77-.03-377.66,0-4.49,0-8.98,0-14.07h-89.8v12.06c0,108.66,0,217.31,0,325.97,0,18.39-3.05,21.44-21.43,21.44-32.34.02-64.69,0-98.91,0,0,9.07-.18,17.69.05,26.3.24,8.91-3.63,14.36-12.05,17.53-34.5,12.97-68.81,26.44-103.41,39.14-4.75,1.75-11.27,1.68-16.04-.08-34.58-12.77-68.85-26.36-103.37-39.28-8.65-3.24-11.74-8.71-11.69-17.57.21-40.09.22-80.17,0-120.26-.05-9.04,3.56-14.16,12.04-17.34,34.52-12.93,68.8-26.49,103.38-39.24,4.75-1.75,11.27-1.71,16.03.05,34.57,12.78,68.85,26.35,103.35,39.32,8.6,3.23,11.88,8.87,11.78,17.66-.2,18.63-.06,37.27-.06,55.91,0,3.77,0,7.54,0,11.92Zm745.41-45.42v-11.35c0-247.16,0-494.32,0-741.49,0-34.17-18.61-52.79-52.76-52.79-134.69-.02-269.37-.01-404.06,0-34.7,0-53.18,18.55-53.18,53.55-.03,246.81-.01,493.62-.01,740.43,0,3.75,0,7.51,0,11.65h510.01Zm-.15,26.38h-508.55c-.53,1.28-1.02,1.91-1.02,2.54-.12,26.35-.31,52.7-.27,79.05.06,34.11,18.77,52.69,52.94,52.7,106.15.02,212.29,0,318.44,0,30.58,0,61.16.22,91.74-.09,24.82-.26,45.64-18.7,46.47-42.77,1.04-30.15.25-60.36.25-91.43ZM56.88,133.98c0,33.23-.18,64.47.3,95.69.04,2.88,3.73,7.08,6.71,8.32,17.48,7.25,35.23,13.84,52.92,20.58,7.94,3.03,15.94,5.91,25.01,9.26,0-32.96.09-64.18-.18-95.39-.02-2.53-1.97-6.51-4.02-7.33-26.31-10.45-52.79-20.44-80.75-31.13Zm.02,360.02c0,33.33-.13,65.2.27,97.06.03,2.3,3.55,5.57,6.17,6.66,14.58,6.04,29.37,11.6,44.12,17.22,10.99,4.19,22.04,8.22,34.35,12.8,0-33.25.08-64.83-.18-96.4-.02-2.15-2.08-5.49-3.99-6.25-26.37-10.4-52.89-20.44-80.74-31.09Zm-.01,359.91c0,33.09-.15,64.68.29,96.26.04,2.61,3.61,6.32,6.4,7.53,11.88,5.17,24.07,9.65,36.19,14.27,13.59,5.19,27.23,10.25,42.05,15.83,0-33.19.1-64.75-.21-96.31-.02-2.36-2.5-5.96-4.69-6.83-26.04-10.28-52.24-20.15-80.02-30.75Zm110.27-226.3c5.24-1.7,8.85-2.7,12.32-4.03,19.33-7.39,38.61-14.92,57.95-22.28,17.16-6.53,18.01-8.06,13.57-27.67-13.11,0-26.42.26-39.72-.08-11.11-.29-17.87-10.42-11.95-18.48,2.61-3.55,8.58-6.14,13.2-6.44,13.11-.85,26.32-.3,39.22-.3v-54.05c-26.39,10.08-51.44,19.94-76.74,29.1-6.67,2.42-8.07,6.1-7.98,12.5.32,23.19.12,46.38.12,69.57,0,6.89,0,13.77,0,22.15Zm84.95,226.51c-27.66,10.61-54.46,20.7-81,31.43-2.22.9-3.75,6.16-3.78,9.42-.29,28.08-.19,56.17-.12,84.25,0,2.55.61,5.1,1.04,8.47,27.24-10.38,53.44-20.23,79.48-30.5,2.19-.86,4.31-4.35,4.67-6.88.73-5.05.22-10.28.22-16.62-14.56,0-27.83.31-41.08-.1-10.59-.33-17.26-8.29-12.95-16.36,2.23-4.18,8.8-7.97,13.73-8.4,13.1-1.15,26.37-.39,39.8-.39v-54.33Zm-.01-718.59c-1.54,0-2.66-.29-3.54.04-25.24,9.59-50.54,19-75.53,29.19-2.87,1.17-5.55,6.71-5.61,10.27-.46,28.09-.28,56.18-.22,84.28,0,2.57.55,5.14.93,8.49,23.59-8.99,46.16-17.57,68.72-26.19q18.04-6.89,14.4-28.05c-3.45,0-7.2.01-10.96,0-10.19-.04-20.38.11-30.55-.19-7.44-.22-12.92-4.69-11.72-11.79.8-4.69,5.73-9.42,10-12.49,2.62-1.88,7.47-.79,11.33-.82,10.75-.07,21.5-.02,32.74-.02v-52.72ZM79.9,475.5c18.16,7.02,34.97,12.34,50.68,19.93,16.37,7.9,31.22,8.3,47.71.19,15.71-7.73,32.63-12.99,51.17-20.17-25.32-9.7-48.22-18.51-71.18-27.18-1.83-.69-4.3-1.11-6.02-.46-23.57,8.88-47.07,17.98-72.36,27.7Zm.05-359.97c20.29,7.84,37.95,13.67,54.71,21.43,14.16,6.56,26.84,6.24,40.88-.21,16.7-7.67,34.22-13.56,54.06-21.27-25.91-9.87-49-18.74-72.19-27.36-2.02-.75-4.89-.38-7,.41-22.58,8.53-45.1,17.24-70.45,27Zm149.59,719.99c-20.34-7.84-38.2-13.85-55.28-21.6-13.02-5.9-24.57-6.79-37.85-.42-14.8,7.11-30.69,11.92-46.07,17.83-2.72,1.04-5.25,2.56-9.27,4.55,24.06,9.26,46.24,17.94,68.57,26.23,2.97,1.1,7.04,1.19,9.99.1,22.33-8.26,44.52-16.94,69.91-26.7Z"/>
  <path class="cls-1" d="m768.8,589.5c-116.42.55-211.94-94.36-212.7-211.34-.76-117.07,94.45-213.23,211.52-213.64,117.04-.41,213.07,94.95,213.41,211.93.34,117.05-94.74,212.5-212.23,213.05Zm-.29-25.32c103.23-.21,187.26-84.24,187.19-187.18-.07-102.94-84.35-187.16-187.29-187.16-103.08,0-187.05,84.08-186.99,187.25.05,103.23,84.14,187.31,187.09,187.1Z"/>
  <path class="cls-1" d="m677.51,762.4c0,16.51.12,33.03-.04,49.54-.11,11.17-4.08,15.28-15.28,15.34-33.03.16-66.07.16-99.11,0-11.37-.05-15.4-3.9-15.48-15.23-.22-33.03-.22-66.06,0-99.08.07-11.43,4.04-15.26,15.37-15.31,33.03-.15,66.07-.15,99.11,0,11.24.05,15.28,4.12,15.39,15.2.17,16.51.04,33.03.04,49.54Zm-104.21,38.85h78.31v-77.56h-78.31v77.56Z"/>
  <path class="cls-1" d="m768.51,697.6c16.52,0,33.05-.14,49.57.05,11.14.13,15.32,4.25,15.36,15.31.13,33.04.14,66.08,0,99.11-.05,10.95-4.3,15.15-15.49,15.2-33.04.15-66.09.15-99.14,0-11.07-.05-15.42-4.24-15.5-15.33-.22-33.04-.22-66.08,0-99.11.08-11.03,4.47-15.06,15.62-15.18,16.52-.18,33.05-.05,49.57-.04Zm39.11,104.02v-78.09h-78.22v78.09h78.22Z"/>
  <path class="cls-1" d="m924.27,827.33c-16.53,0-33.05.15-49.58-.05-11.03-.13-15.47-4.37-15.53-15.31-.19-33.04-.19-66.09,0-99.13.06-10.91,4.52-15.14,15.61-15.19,33.05-.14,66.1-.14,99.15,0,11.05.05,15.44,4.34,15.5,15.28.16,33.04.17,66.09,0,99.13-.06,10.87-4.49,15.09-15.59,15.22-16.52.19-33.05.05-49.58.05Zm-39.06-104.04v78.13h78.23v-78.13h-78.23Z"/>
  <path class="cls-1" d="m768.53,208.26c93.56.05,168.83,75.36,168.79,168.88-.04,93.36-75.65,168.99-168.94,169-93,0-169.09-76.14-169.04-169.16.05-93.22,75.8-168.77,169.19-168.72Zm-.12,25.32c-79.36.04-143.65,64.11-143.75,143.25-.1,79.4,64.86,144.19,144.35,143.98,79.07-.21,143.14-64.75,142.99-144.05-.15-79.46-64.1-143.23-143.59-143.19Z"/>
  <path class="cls-1" d="m787.85,472.85c-2.6,10.84,4.38,25.58-13.21,27.45-9.48,1.01-12.25-5.08-13.2-27.01h-9.6c-2.77,10.03,4.61,26.92-13.69,26.66-17.47-.25-10.45-16.4-13.21-27.59-5.84,0-12.04.08-18.23-.02-10.17-.16-16.51-4.93-15.95-12.67.64-8.97,6.37-12.74,15.03-12.65,1.39.01,2.78-.21,4.72-.36v-138.54c-3.25-.52-7.57.07-9.71-1.82-4.03-3.55-9.61-8.74-9.31-12.86.29-4.04,6.56-9.63,11.2-10.89,6.81-1.86,14.5-.48,22.19-.48,3-11.08-4.29-28.74,14.28-28.12,16.62.55,10.5,16.65,12.56,27.3h9.3c2.69-10.34-4.22-27.27,13.44-27.31,17.82-.04,10.62,16.98,13.36,26.79,50.31,11.74,64.29,46.28,36.11,89.14,19.76,17.75,28.08,39.35,18.66,65.13-9.08,24.84-28.57,36.23-54.71,37.86Zm-51.01-26.08c19.44,0,38.33.89,57.09-.28,14.85-.93,26.14-14.49,26.91-29.15.8-15.4-8.89-30.38-24.49-31.95-19.6-1.97-39.54-.47-59.93-.47,0,19.08,0,37.62.02,56.17,0,1.67.23,3.33.41,5.69Zm.03-88.27c17.98,0,34.78.37,51.56-.12,13.34-.39,23.28-10.29,24.37-22.99,1.13-13.15-6.87-26.23-19.31-27.14-18.65-1.37-37.46-.36-56.62-.36v50.6Z"/>
</svg>