<?xml version="1.0" encoding="UTF-8"?>
<svg id="Layer_1" data-name="Layer 1" xmlns="http://www.w3.org/2000/svg" viewBox="0 0 1080 1080">
  <defs>
    <style>
      .cls-1 {
        stroke-width: 0px;
      }
    </style>
  </defs>
  <path class="cls-1" d="m681.57,189.91h14.21c104.25,0,208.5,0,312.75,0,38.19,0,59.34,20.9,59.34,58.72.02,206.67.02,413.34,0,620.01,0,37.83-21.15,58.74-59.34,58.75-104.25.02-208.5,0-312.75,0h-14.21c0,16.44.03,32.04,0,47.64-.14,55.55-37.38,92.8-93.01,92.82-160.58.05-321.16.05-481.75,0-54.92-.02-92.46-37.44-92.47-92.23-.05-289.71-.05-579.41,0-869.12,0-54.78,37.55-92.16,92.5-92.18,160.58-.05,321.16-.05,481.75,0,55.65.02,92.87,37.23,92.98,92.82.06,27.04,0,54.08,0,82.76Zm-481.39,368.63c3.15,2.82,5.46,5.01,7.9,7.04,25,20.85,49.78,41.95,75.15,62.34,8.85,7.11,12.28,15.08,12.22,26.34-.37,71.33-.2,142.65-.18,213.98,0,18.59,5.5,24.04,24.25,24.04,229.71.01,459.42.01,689.13,0,18.61,0,24.1-5.51,24.1-24.2.01-206.3.01-412.6,0-618.9,0-18.68-5.47-24.15-24.13-24.15-229.71-.01-459.42-.01-689.13,0-18.75,0-24.21,5.42-24.22,24.05-.02,65.47.16,130.95-.07,196.42-.14,39.27,4.69,29.41-25.6,54.97-22.84,19.28-45.85,38.36-69.42,58.06Zm376.04-368.63c0-17.4.09-33.1-.03-48.81-.12-15.07-6.32-21.33-21.35-21.4-24.14-.12-48.32.85-72.4-.35-15.63-.78-27.36,3.52-37.38,15.6-12.2,14.7-28.59,20.36-47.76,19.98-29.25-.57-58.57-1.34-87.75.2-26.87,1.41-48.47-6.08-66.26-26.67-4.29-4.97-13.1-8.15-19.98-8.41-25.93-.97-51.92-.4-77.88-.39-20.92,0-25.77,4.85-25.77,25.79,0,263.68,0,527.36,0,791.04,0,21.09,4.84,26.01,25.56,26.02,132.75,0,265.51,0,398.26,0,5.12,0,10.25.2,15.36-.11,9.16-.55,15.36-5.51,16.82-14.44,1.07-6.57.21-13.45.21-20.57h-13.44c-81.19,0-162.38.02-243.57,0-37.41-.01-58.71-21.12-58.72-58.24-.03-68.02-.14-136.05.17-204.07.04-7.76-2.39-12.59-8.36-17.44-29.21-23.77-58.03-48.01-86.95-72.14-13.84-11.55-13.87-21.75-.09-33.3,29.14-24.43,58.21-48.95,87.64-73.02,5.69-4.65,7.75-9.39,7.72-16.62-.25-68.02-.17-136.05-.14-204.07.01-37.3,21.21-58.57,58.36-58.58,81.55-.02,163.11,0,244.66,0,3.94,0,7.88,0,13.03,0Zm70.24-.42c0-28.97.1-56.74-.03-84.51-.15-33.48-22.27-55.51-55.92-55.52-161.68-.05-323.35-.05-485.03,0-34.09.01-56.02,22.14-56.02,56.52-.03,290.07-.03,580.13,0,870.2,0,34.84,21.96,56.54,57.09,56.57,60.72.06,121.44.02,182.16.02,100.96,0,201.91.06,302.87-.04,27.83-.03,50.43-17.08,53.61-43.53,2.4-20.05.48-40.61.48-61.01h-34.33c0,5.85.07,10.94-.01,16.03-.52,30.71-22.87,53.32-53.68,53.36-139.73.15-279.46.15-419.19,0-31.34-.03-53.83-22.75-53.84-54.25-.09-268.12-.09-536.24,0-804.36,0-32.01,22.62-54.21,54.82-54.39,23.78-.13,47.63,1.19,71.31-.35,26.92-1.75,48.44,6.17,66.26,26.69,4.3,4.96,13.13,8.16,19.98,8.36,30.33.89,60.74-.5,91.05.74,16.45.67,28.73-3.81,39.25-16.45,11.7-14.05,27.53-19.48,45.88-19.14,26.69.49,53.4.1,80.1.13,36.58.04,57.99,21.36,58.07,57.81.03,15.6,0,31.19,0,47.12h35.12Z"/>
  <path class="cls-1" d="m608.83,462.49c-17.21,17.42-34.34,34.92-51.66,52.24-11.9,11.91-20.07,11.95-31.8.33-15.59-15.44-31.12-30.94-46.54-46.55-10.81-10.94-10.95-19.47-.22-30.22,56.83-56.95,113.71-113.84,170.67-170.66,10.33-10.3,19.1-10.36,29.44-.05,56.98,56.8,113.86,113.69,170.68,170.65,10.69,10.71,10.56,19.38-.17,30.27-15.66,15.89-31.42,31.67-47.32,47.32-10.76,10.59-19.39,10.5-30.24-.33-17.59-17.56-34.97-35.33-54.98-55.59v14.29c0,72.77.01,145.55,0,218.32,0,18.66-5.5,24.13-24.13,24.16-19.75.03-39.5.08-59.24-.02-15.76-.08-21.93-6.18-21.94-21.91-.06-73.14-.03-146.28-.03-219.42,0-3.91,0-7.82,0-11.73-.84-.37-1.67-.75-2.51-1.12Zm72.75,218.53v-12.63c0-80.47,0-160.94,0-241.41,0-3.29-.22-6.61.13-9.87,1.59-14.72,16.63-21.3,28.43-12.38,3.19,2.4,5.89,5.47,8.73,8.31,22.42,22.45,44.83,44.93,66.84,66.99,9.56-9.81,18.32-18.8,25.41-26.09-49.25-49.34-98.97-99.17-146.8-147.09-48.87,48.86-98.64,98.63-147.03,147,7.27,7.9,15.6,16.95,26.01,28.26,2.54-3.68,4.41-7.41,7.19-10.23,21.34-21.59,42.86-43,64.33-64.48,5.89-5.89,12.56-8.84,20.79-5.23,8.06,3.53,11.09,10.1,10.86,18.54-.07,2.56,0,5.12,0,7.68,0,80.11,0,160.21,0,240.32v12.31h35.12Z"/>
  <path class="cls-1" d="m488.42,751.34h351.19c0-16.06-.06-31.66.02-47.27.08-16.51,5.96-22.42,22.46-22.48,20.47-.07,40.95-.1,61.42.01,15.09.08,21.39,6.29,21.42,21.31.1,44.24.09,88.48,0,132.72-.03,15.1-6.3,21.5-21.25,21.5-172.94.05-345.87.05-518.81,0-15.65,0-21.76-6.23-21.79-22.06-.07-43.87-.07-87.75,0-131.62.03-15.74,6.16-21.8,21.96-21.87,20.84-.09,41.68-.13,62.52.02,14.33.1,20.67,6.47,20.81,20.81.16,16.02.04,32.04.04,48.92Zm386.31-34.16c0,16.62.06,31.97-.02,47.31-.08,16.42-6.05,22.41-22.57,22.41-125.45.03-250.9.04-376.36,0-16.48,0-22.39-5.99-22.46-22.51-.07-15.61-.02-31.21-.02-46.96h-34.23v104h490.04v-104.26h-34.38Z"/>
  <path class="cls-1" d="m189.85,189.85c0,6.88.3,12.33-.06,17.73-.7,10.36-8.02,17.41-17.55,17.35-9.55-.06-16.93-7.11-17.31-17.54-.43-11.67-.43-23.38,0-35.04.39-10.45,6.93-17.01,17.36-17.41,11.67-.45,23.37-.43,35.04-.01,10.44.37,17.5,7.72,17.59,17.26.09,9.53-6.95,16.89-17.29,17.6-5.41.37-10.86.07-17.79.07Z"/>
  <path class="cls-1" d="m189.85,892.4c7.28,0,13.09-.42,18.83.09,9.63.85,16.28,8.28,16.25,17.39-.03,9.09-6.7,16.8-16.35,17.27-12.36.6-24.79.62-37.15,0-9.57-.48-15.77-6.4-16.34-15.97-.74-12.34-.61-24.78-.07-37.15.42-9.62,8.07-16.46,17.07-16.61,9.37-.15,16.96,7.03,17.69,17.2.39,5.39.07,10.83.07,17.77Z"/>
  <path class="cls-1" d="m347.99,102c-6.22,0-12.47.42-18.64-.09-9.72-.8-16.4-8.17-16.43-17.31-.03-9.16,6.62-16.89,16.32-17.35,12.4-.59,24.88-.58,37.28-.01,9.73.45,16.41,8.1,16.45,17.25.03,9.12-6.65,16.59-16.34,17.41-6.17.53-12.42.1-18.64.1Z"/>
</svg>