<?xml version="1.0" encoding="UTF-8"?>
<svg id="Layer_1" data-name="Layer 1" xmlns="http://www.w3.org/2000/svg" viewBox="0 0 820 1080">
  <defs>
    <style>
      .cls-1 {
        stroke-width: 0px;
      }
    </style>
  </defs>
  <path class="cls-1" d="m794.9,541.56c0,168.47,0,336.94,0,505.41,0,21.68-2.96,24.65-24.47,24.65-186.7,0-373.4-.07-560.1.19-11.04.02-19.11-3.13-26.92-11.03-50.41-50.97-101.4-101.37-151.68-152.46-4.76-4.83-8.43-13.17-8.44-19.88-.42-286-.37-571.99-.33-857.99,0-15.32,4.93-20.08,20.39-20.08,243.84-.02,487.68-.02,731.51,0,16.05,0,20.03,4.51,20.03,22.51.01,169.56,0,339.12,0,508.68Zm-29.78,500.77V39.74H53.25v839.98c47.85,0,94.77-.04,141.68.02,15.6.02,19.97,4.46,19.98,20.17.04,43.66,0,87.33.04,130.99,0,3.83.33,7.66.5,11.42h549.67Zm-579.4-24.34v-108.69h-108.8c36.22,36.18,72.58,72.51,108.8,108.69Z"/>
  <path class="cls-1" d="m297.32,663.59c-6.26-3.67-12.69-7.1-18.75-11.08-7.02-4.61-9.44-11.18-5.32-18.82,4.37-8.09,11.67-10.12,19.47-5.79,24.47,13.58,48.86,27.34,72.88,41.7,10.34,6.18,10.13,18.59-.39,24.83-23.75,14.1-47.88,27.57-71.99,41.05-7.76,4.33-14.9,2.92-19.86-4.83-4.63-7.22-2.2-15.14,6.19-20.31,7.1-4.37,14.45-8.33,21.73-14.61-3.61-.22-7.22-.61-10.84-.62-26.93-.05-53.88-.55-80.79.1-31.79.77-53.32-20.75-52.63-52.84,1.34-62.92.35-125.89.41-188.84.03-32.56,17.84-50.36,50.67-50.62,20.74-.17,41.5.23,62.23-.32,3.17-.08,8.52-3.44,9.02-6.04,5.98-30.76,37.46-55.76,72.36-54.69,27.76.85,59.43,22.12,66.16,57.95.13.69.59,1.31,1.31,2.83,33,0,66.42.38,99.82-.23,9.93-.18,16.05-7.08,16.13-17.3.24-34.2.33-68.41-.06-102.61-.13-11.1-6.71-16.83-18.51-17.04-19.28-.35-38.58-.16-57.87-.16-68.06,0-136.12.13-204.17-.17-8.55-.04-13.08,1.88-16.92,10.52-13.29,29.87-46.43,46.03-77.45,39.28-32.56-7.09-55.66-34.59-56.58-67.34-.91-32.52,21.32-61.88,53.11-70.13,35.34-9.18,73.16,11.58,84.33,46.33,1.21,3.78,2.17,7.64,3.6,12.72,4.16,0,8.44,0,12.72,0,84.44,0,168.87-.01,253.31,0,36.22,0,53.51,17.3,53.52,53.43,0,30.93.07,61.86-.02,92.79-.08,29.22-19.27,48.68-48.4,48.86-29.84.19-59.69.23-89.53-.1-6.59-.07-9.97,1.46-12.89,8.05-12.4,27.96-34.47,42.84-65.1,42.78-30.78-.05-52.35-15.55-64.54-43.53-2.51-5.76-5.35-7.37-11.22-7.29-21.83.31-43.67,0-65.51.18-14.63.11-20.6,6.09-20.61,20.55-.06,64.41-.06,128.81,0,193.22.01,12.55,4.75,19.82,15.19,20.01,31.86.58,63.73.21,95.6.21.08-.69.17-1.39.25-2.08Zm51.69-209.72c22.91-.01,41.2-18.67,41.06-41.88-.13-22.53-18.39-41.07-40.69-41.31-23.43-.25-42.65,18.8-42.39,42.01.26,22.97,18.85,41.18,42.02,41.17Zm-175.05-249.56c-23.22.18-41.51,18.56-41.39,41.58.12,22.94,18.68,41.47,41.67,41.6,22.64.13,41.21-18.75,41.18-41.88-.03-23.27-18.32-41.49-41.46-41.31Z"/>
  <path class="cls-1" d="m660.05,747.62c15.78,15.62,31.34,30.9,46.77,46.33,9.08,9.08,10.06,16.81,3.4,23.65-6.71,6.89-14.71,6.03-23.69-2.89-15.47-15.37-30.81-30.88-46.19-46.33-9.16,1.68-11.59,6.92-11.33,15.44.56,18.54.28,37.1.13,55.65-.12,14.35-4.69,19.25-18.95,19.28-69.13.14-138.27.15-207.4-.01-13.76-.03-18.18-4.8-18.19-18.66-.06-98.22-.06-196.45,0-294.67,0-14.38,4.5-18.93,19.03-18.95,68.77-.1,137.54-.1,206.31,0,14.21.02,19.09,4.97,19.21,19.07.17,19.64-.16,39.29.24,58.93.07,3.42,1.65,8.06,4.18,10,47.42,36.42,56.31,78.87,26.51,133.14Zm-246.05,81.16h185.25v-44.19c-66.75,5.66-104.95-43.37-106.13-87.48-.63-23.49,5.95-44.61,21.03-62.64,22.24-26.62,51.53-36.2,85.45-33.14v-45.23h-185.6v272.69Zm170.79-73.16c34.98.26,63.48-27.79,63.66-62.66.18-34.34-27.6-62.55-62.13-63.06-35.26-.52-63.66,27.05-63.93,62.06-.27,35.33,27.24,63.4,62.39,63.66Z"/>
</svg>