<?xml version="1.0" encoding="UTF-8"?>
<svg id="Layer_1" data-name="Layer 1" xmlns="http://www.w3.org/2000/svg" viewBox="0 0 1080 1080">
  <defs>
    <style>
      .cls-1 {
        stroke-width: 0px;
      }
    </style>
  </defs>
  <path class="cls-1" d="m643.18,852.84v69.31c13.53,0,26.75,0,39.96,0,14.8,0,29.6-.18,44.39.07,12.23.21,18.98,6.62,19.07,18.68.24,33.57.23,67.14.02,100.7-.08,12.98-6.96,19.11-20.84,19.14-45.47.09-90.94.04-136.41.04-77.95,0-155.9,0-233.85,0-19.33,0-24.57-5.16-24.59-24.14-.02-29.6-.01-59.2,0-88.79,0-20.85,4.74-25.67,25.2-25.68,25.89-.01,51.77,0,78.2,0v-69.31h-12.43c-114.76,0-229.52.01-344.28,0-37.56,0-58.51-20.79-58.52-58.05-.01-192.39-.02-384.77,0-577.16,0-36.83,20.94-57.86,57.58-57.88,67.12-.03,134.25-.1,201.37.12,6.95.02,12.7-.27,15.44-7.9.56-1.55,2.36-2.68,3.63-3.95,30.36-30.38,60.69-60.79,91.11-91.1,11.46-11.42,20.06-11.4,31.49-.21,4.9,4.8,9.26,10.28,14.7,14.33,3.06,2.28,8.58,4.07,11.61,2.8,2.97-1.25,5.47-6.52,5.89-10.28.89-7.84.07-15.86.34-23.79.39-11.64,6.66-18.47,18.09-18.53,45.47-.23,90.94-.22,136.41-.02,12.01.05,18.28,6.86,18.62,19.14.22,7.93-.5,15.94.3,23.8.35,3.43,2.8,8.42,5.48,9.37,3.31,1.18,8.78.08,11.68-2.16,6.24-4.81,11.3-11.1,17.07-16.56,8.78-8.3,18.33-8.84,26.78-.49,32.09,31.71,64.52,63.12,95.31,96.06,7.22,7.72,13.29,9.51,22.49,9.48,65.68-.23,131.36-.15,197.04-.11,35.87.02,56.98,21.27,56.99,57.4.02,192.75.02,385.49,0,578.24,0,36.47-21.22,57.44-58.05,57.45-114.4.02-228.8,0-343.2,0h-14.1Zm380.71-139.09v-12.59c0-79.4,0-158.81,0-238.21,0-82.29.03-164.58-.03-246.87,0-15.14-6.07-21.63-20.52-21.65-77.22-.09-154.45-.13-231.67.22-3.53.02-10.08,4.05-10,6,.23,5.78,1.94,12.04,10.85,11.22,8.23-.75,16.59-.37,24.88-.09,11.58.39,18.41,6.72,18.47,18.16.23,45.48.23,90.95.01,136.43-.06,11.98-6.93,18.24-19.21,18.56-8.29.22-16.64-.45-24.87.31-3.09.28-7.52,2.9-8.43,5.48-1.12,3.16-.41,8.37,1.67,10.98,5.14,6.45,11.66,11.77,17.34,17.82,8.28,8.81,8.73,18.33.35,26.82-31.7,32.09-63.6,64-95.67,95.72-8.9,8.81-18.28,8.26-27.57-.62-5.74-5.48-10.88-11.68-17.07-16.57-2.66-2.1-7.94-3.25-10.85-2.02-2.84,1.2-5.53,5.84-5.88,9.22-.84,8.22-.07,16.58-.35,24.87-.39,11.58-6.75,18.45-18.14,18.51-45.47.23-90.94.23-136.4.02-11.99-.06-18.26-6.91-18.58-19.18-.21-8.3.44-16.65-.3-24.88-.28-3.11-2.84-7.6-5.41-8.52-3.16-1.13-8.33-.37-11.01,1.69-5.95,4.58-10.83,10.55-16.26,15.83-10.94,10.63-19.71,10.63-30.71-.33-30.69-30.56-61.31-61.18-91.85-91.88-10.44-10.5-10.37-19.44-.22-29.9,5.28-5.44,11.19-10.35,15.81-16.29,2.11-2.71,3.35-7.95,2.13-10.86-1.19-2.84-5.85-5.55-9.23-5.9-8.21-.85-16.58-.07-24.87-.34-11.62-.38-18.51-6.69-18.56-18.07-.23-45.84-.24-91.68.02-137.51.06-10.8,6.97-17.08,17.96-17.54,7.57-.31,15.23-.77,22.71.09,8.74,1.01,13.57-3.02,13.68-10.74.13-8.64-7.57-6.71-12.93-6.71-74.7-.08-149.4-.06-224.09-.05-20.6,0-25.37,4.8-25.37,25.51,0,160.61,0,321.23,0,481.84v12.01h970.16Zm-277.52-281.79c-17.35-13.86-28.35-26.98-17.1-54.64,11.29-27.75,28.51-28.94,51.4-26.6v-104.36c-8.9,0-17.14-.11-25.38.03-9.44.16-15.71-4.08-19.18-12.84-3.84-9.71-7.72-19.4-11.87-28.98-3.75-8.67-2.58-16.28,4.42-22.59,6.38-5.76,13.09-11.14,19.42-16.49-26.28-26.31-50.23-50.29-75.14-75.23-14.22,17.36-27.1,29.07-54.92,17.7-27.92-11.41-29.45-28.9-26.92-51.62h-104.79c2.71,23.38.82,40.22-26.69,51.57-27.77,11.46-40.71-.18-53.91-16.39-24.92,24.95-49.01,49.06-73.89,73.97,18.08,13.38,27.02,27.05,16.29,54.38-11.13,28.34-29.3,27.82-50.97,26.29v102c13.69,2.31,29.1.71,37.97,7.58,9.05,7,11.43,22.44,17.16,33.96,11.65,23.42-13.21,29.35-20.05,42.77,24.3,24.22,48.44,48.27,73.45,73.19,13.55-17.8,26.98-27.63,54.44-16.68,28.1,11.2,28.26,28.99,26.44,51.17h104.22c0-8.7.17-16.61-.04-24.51-.29-10.39,4.31-16.9,14.18-20.38,8.81-3.11,17.51-6.67,25.95-10.7,9.81-4.69,18.16-3.52,25.31,4.66,5.37,6.14,10.52,12.47,15.07,17.88,26.39-26.39,50.32-50.32,75.13-75.13ZM54.56,749.26c-.42,1.83-.72,2.51-.72,3.2-.06,12.99-.1,25.98-.11,38.97,0,22.3,4.38,26.76,26.29,26.76,305.94,0,611.87,0,917.81,0,3.61,0,8.12,1.23,10.63-.46,5.55-3.73,13.89-8.6,14.38-13.65,1.74-18.07.68-36.41.68-54.81H54.56Zm656.65,276.45v-68.38h-345v68.38h345Zm-241.22-104.32h137.24v-67.98h-137.24v67.98Z"/>
  <path class="cls-1" d="m954.59,488.96c0,28.04.04,54.69-.02,81.33-.04,16.88-5.82,22.59-22.84,22.63-20.2.05-40.4.13-60.6-.03-14.1-.11-20.38-6.43-20.44-20.62-.13-27.35-.04-54.7-.04-83.31-11.15,0-21.49.17-31.83-.04-17.8-.37-25.4-13.57-16.04-28.71,27.67-44.77,55.55-89.41,83.66-133.91,8.71-13.79,23.62-13.76,32.36.08,28.11,44.5,55.99,89.14,83.64,133.92,9.32,15.1,1.62,28.27-16.21,28.62-10.05.2-20.11.04-31.64.04Zm-34.65,69.11v-11.52c0-23.42-.06-46.85.02-70.27.05-16.09,5.99-21.85,22.33-21.97,4.54-.03,9.08,0,15.74,0-18.84-30.1-36.64-58.53-55.41-88.53-18.77,30-36.56,58.43-55.39,88.52,6.27,0,10.45-.01,14.63,0,17.77.07,23.38,5.56,23.42,23.07.05,18.74.01,37.48.01,56.21,0,8.11,0,16.21,0,24.47h34.65Z"/>
  <path class="cls-1" d="m244.3,594.79c0,26.55.05,53.23-.02,79.92-.04,16.23-5.95,22.11-22.21,22.17-20.2.07-40.4.11-60.6-.01-14.85-.09-21.02-6.24-21.08-21.09-.11-27.04-.03-54.09-.03-82.85-10.62,0-20.91.13-31.2-.03-18.52-.29-26.14-13.44-16.44-29.12,27.5-44.45,55.19-88.78,83.08-133,9.06-14.37,23.92-14.41,32.98-.06,27.89,44.21,55.58,88.54,83.07,133,9.7,15.68,2.09,28.84-16.36,29.19-9.73.18-19.47.22-29.2.36-.28,0-.55.4-1.98,1.52Zm3.46-36.51c-18.9-30.18-36.7-58.59-55.44-88.52-18.81,30.06-36.6,58.49-55.38,88.52,4.55,0,6.96-.02,9.37,0,25.4.25,28.7,3.54,28.7,28.62,0,24.76,0,49.53,0,74.7h34.65c0-4.16,0-7.7,0-11.23,0-23.78-.09-47.57.04-71.35.08-14.26,6.28-20.45,20.3-20.73,5.24-.1,10.49-.02,17.77-.02Z"/>
  <path class="cls-1" d="m139.83,211.86v34.06h-33.86v34.51h-34.46c0-18.19-1.05-36.79.7-55.13.47-4.89,9.14-12.3,14.6-12.82,17.37-1.66,34.99-.61,53.03-.61Z"/>
  <path class="cls-1" d="m105.22,316.27v33.31h-33.49v-33.31h33.49Z"/>
  <path class="cls-1" d="m539.3,142.46c86.37.43,155.65,70.41,155.37,156.94-.28,85.86-70.91,155.33-157.46,154.89-85.18-.44-154.96-71.43-154.31-156.98.65-85.82,70.8-155.27,156.4-154.85Zm120.73,156.12c.09-66.81-54.24-121.49-120.71-121.49-67.31,0-121.67,54.3-121.76,121.61-.08,65.99,54.33,120.72,120.22,120.93,67.51.21,122.15-53.89,122.24-121.04Z"/>
  <path class="cls-1" d="m642.71,298.15c.08,57.31-46.63,104.24-103.68,104.16-57.34-.08-103.86-46.44-104.13-103.78-.27-57.11,46.56-104.12,103.71-104.12,57.4,0,104.02,46.46,104.1,103.74Zm-173.17-.3c-.28,38.28,30.82,69.74,69.02,69.81,37.89.07,69.06-30.54,69.51-68.25.46-38.4-30.35-70.05-68.48-70.34-38.41-.29-69.78,30.51-70.06,68.78Z"/>
</svg>