<?xml version="1.0" encoding="UTF-8"?>
<svg id="Layer_1" data-name="Layer 1" xmlns="http://www.w3.org/2000/svg" viewBox="0 0 1080 1080">
  <defs>
    <style>
      .cls-1 {
        stroke-width: 0px;
      }
    </style>
  </defs>
  <path class="cls-1" d="m296.79,215.23c-8.05-9.32-14.38-16.36-20.38-23.67-16-19.47-15.01-42.88,2.45-60.8,4.9-5.03,9.87-9.99,14.89-14.9,17.63-17.25,40.73-18.76,59.83-3.23,13.61,11.07,26.72,22.78,39.69,34.59,4.83,4.39,8.24,4.58,14.48,1.72,21.9-10.04,44.24-19.17,66.74-27.78,5.42-2.07,7.88-3.74,8.16-9.78.8-17.19,2.38-34.35,3.59-51.53,1.78-25.22,19.47-42.24,44.53-42.7,6.31-.12,12.63-.05,18.94-.02,28.36.12,45.96,16.56,47.94,44.95,1.1,15.77,2.23,31.56,2.85,47.35.27,6.98,3.11,9.69,9.8,12.2,22.22,8.34,44.1,17.65,65.75,27.4,5.58,2.52,8.84,3.2,13.62-1.28,12.03-11.29,24.59-22.01,37.07-32.8,21.36-18.48,44.99-17.98,64.5,2.27,9.13,9.48,18.87,19.42,24.41,31.03,7.18,15.07,1.95,30.28-8.52,43.13-6.11,7.49-12.51,14.75-20.26,23.84,5.96,0,9.67,0,13.38,0,59.64,0,119.28-.04,178.92.01,55.04.04,91.83,36.61,91.87,91.77.12,151.15.04,302.3.04,453.45,0,24.25.24,48.5-.06,72.74-.65,52.11-37.38,88.64-89.42,88.71-108.41.15-216.81.23-325.22-.25-10.36-.05-14.7,3.56-17.93,12.64-11.8,33.17-11.99,65.88,1.16,98.76,2.83,7.07,6.45,9.5,13.88,9.13,12.25-.62,24.55-.12,36.83-.18,8.25-.04,14.1,3.57,14.08,12.08-.01,8.61-5.99,11.85-14.22,11.85-98.91-.05-197.81-.04-296.72-.01-8.43,0-14.94-2.61-14.62-12.34.3-8.92,6.47-11.61,14.47-11.58,13.33.05,26.69.46,39.98-.3,3.45-.2,8.38-3.42,9.76-6.52,15.83-35.71,14.59-71.47-.19-107.34-2.87-6.97-7.69-5.88-12.75-5.88-109.11-.02-218.21-.12-327.32.08-19.95.04-38.29-4.48-54.36-16.38-23.54-17.43-35.85-40.99-35.86-70.41-.09-177.86-.19-355.73.05-533.59.07-48.5,37.78-86.05,86.34-86.35,61.39-.37,122.79-.1,184.18-.1,3.74,0,7.48,0,13.65,0Zm14.47,24.05h-8.3c-66.32,0-132.63-.06-198.95.02-42.36.06-67.81,25.85-67.82,68.67-.04,149.41-.01,298.83-.01,448.24v11.06h1010.12c.17-3.67.45-6.77.45-9.87.02-150.47.07-300.94-.02-451.4-.03-41.31-25.71-66.65-67.32-66.7-66.32-.08-132.63-.03-198.95,0-3.36,0-6.73.35-8.69.46,9.23,24.15,18.75,47.76,27.08,71.78,2.29,6.61,5.02,8.7,11.57,9.04,18.55.97,37.17,1.84,55.58,4.2,21.26,2.73,35.76,19.62,36.79,41.07.39,8.07.22,16.17.08,24.25-.43,24.96-16.51,42.48-41.33,44.7-17.47,1.56-34.96,2.9-52.48,3.74-5.94.28-7.83,2.55-9.95,8.03-8.95,23.16-19.05,45.87-28.23,68.94-1.21,3.03-.91,8.25.97,10.67,7.54,9.68,15.55,19.09,24.17,27.83,28.79,29.21,31.5,54.7-2.1,85.13-24.11,21.84-44.82,23.62-69.49,2.28-13.75-11.89-27.41-23.88-38.39-33.45-27.75,10.66-53.23,20.24-78.47,30.42-2.92,1.18-6.16,5.48-6.47,8.62-1.64,16.43-2.29,32.95-3.45,49.43-1.97,27.87-19.43,44.3-47.13,44.49-6.32.04-12.63.07-18.95,0-26.52-.31-43.67-16.95-45.43-43.75-1.26-19.23-2.79-38.45-4-55.05-28.74-11.99-55.75-23.25-83.94-35.01-12.8,11.23-26.49,24.43-41.49,35.92-7.76,5.94-17.48,11.35-26.92,12.66-27.58,3.82-64.4-30.65-64.59-58.66-.09-12.66,5.01-23.08,13.16-32.38,12.66-14.45,25.22-28.98,35.27-40.54-10.59-27.83-20.35-52.89-29.56-78.16-1.83-5.03-3.85-7.11-9.39-7.4-17.86-.92-35.7-2.39-53.52-3.94-23.76-2.08-39.92-19.44-40.41-43.15-.12-5.97.38-11.99-.11-17.92-2.54-31.04,19-49.73,47.63-50.64,15.42-.49,30.84-1.56,46.2-2.99,3.09-.29,7.59-2.74,8.59-5.31,9.64-24.68,18.66-49.61,28.18-75.31ZM36.18,792.56c0,13.27-.03,25.19,0,37.12.11,42.44,25.95,68.51,68.07,68.52,110.48.04,220.95.01,331.43.01,69.42,0,138.84,0,208.27,0,113.63,0,227.27.15,340.9-.13,26.89-.07,49.51-16.39,58.08-41.02,7.34-21.07,2.56-42.78,3.94-64.5H36.18ZM325.34,124.74c-5.29,2.78-9.88,4.5-13.62,7.33-4.16,3.15-7.55,7.31-11.27,11.04-15.38,15.42-15.61,22.61-1.12,39.25,11.76,13.5,23.8,26.76,35.33,40.44,10.64,12.62,10.48,13.82,1.85,27.54-15.08,23.99-26.15,49.66-31.41,77.58-2.02,10.7-7.28,15.54-18.37,15.95-20.67.77-41.3,2.47-61.93,4.03-13.65,1.03-20.28,8.18-20.54,21.66-.12,6.32-.1,12.65,0,18.98.2,14.46,7.13,21.71,21.85,22.74,20.64,1.44,41.27,3.16,61.93,4.01,9.8.4,14.8,4.84,16.63,14.03,5.97,29.99,17.6,57.67,34.58,83.01,5.23,7.81,4.32,13.98-1.77,20.7-10.61,11.7-20.8,23.78-31.14,35.74-23.75,27.47-23.67,29.4,1.98,54.64,12.2,12.01,20.72,12.41,33.74,1.22,15.7-13.5,31.48-26.93,46.77-40.89,6.51-5.95,12.21-6.82,19.61-1.91,25.68,17.06,53.55,29.01,83.89,34.84,8.91,1.71,12.92,6.58,13.31,15.92.86,20.35,2.61,40.67,3.92,61,1.08,16.66,8.06,23.48,24.39,23.6,5.26.04,10.52.05,15.78,0,15.19-.17,22.06-6.15,23.25-21.13,1.63-20.66,3.05-41.35,4.09-62.05.49-9.83,4.48-15.66,14.43-17.59,29.97-5.83,57.55-17.66,82.85-34.62,7.92-5.31,14.04-4.03,20.64,1.96,11.71,10.6,23.77,20.81,35.62,31.26,26.74,23.57,28.99,23.53,53.82-1.53,12.6-12.72,13.13-21.15,1.66-34.63-12.75-14.97-25.44-30.01-38.77-44.44-7.4-8.01-8.31-15.11-2.18-24.32,16.31-24.5,27.35-51.39,33.12-80.25,1.97-9.89,6.33-14.52,16.67-14.92,19.96-.77,39.89-2.47,59.83-3.84,17.54-1.21,23.75-7.76,23.92-25.09.05-4.92.06-9.84,0-14.76-.21-16.18-5.46-22.45-21.51-23.85-19.91-1.73-39.87-2.99-59.83-3.9-10.99-.5-17.09-4.64-19.4-16.24-5.72-28.86-16.99-55.68-33.45-80.09-5.68-8.42-5.02-15.09,1.72-22.53,13.9-15.35,27.44-31.04,40.81-46.86,9.87-11.69,9.34-20.68-1.11-31.5-3.66-3.79-7.4-7.49-11.15-11.19-12.08-11.92-21.16-12.33-33.79-1.24-15.29,13.44-30.62,26.85-45.58,40.65-7.15,6.59-13.86,6.8-21.71,1.58-25.1-16.7-52.49-28.14-82.01-33.96-9.74-1.92-13.71-7.01-14.18-16.39-.86-17.19-2.02-34.37-3.06-51.56-1.75-28.92-5.46-32.47-33.95-32.46-1.75,0-3.51,0-5.26,0-18,.12-24.34,6.24-25.53,24.51-1.25,19.28-3.05,38.55-3.65,57.85-.34,11.12-5.04,16.34-15.75,18.49-28.81,5.81-55.56,17.04-80.03,33.34-8.41,5.6-15.14,5.04-22.57-1.66-15.38-13.87-31.02-27.45-46.92-40.72-4.36-3.64-10-5.73-15.41-8.73Zm141.37,916.59h150.17c-15.93-39.98-14.47-79.33-.05-118.45h-150.33c14.97,39.83,15.58,78.94.21,118.45Z"/>
  <path class="cls-1" d="m160.84,657.6c26.28,0,52.57.07,78.85-.04,8.21-.04,14.93,1.62,15.42,11.5.4,8.08-4.99,12.24-15.84,12.25-52.57.05-105.14-.05-157.71.09-8.48.02-14.72-2.5-15.64-11.69-.77-7.64,5.32-12.05,16.06-12.08,26.28-.07,52.57-.02,78.85-.02Z"/>
  <path class="cls-1" d="m921.79,657.6c25.93,0,51.86.13,77.79-.08,8.62-.07,15.74,1.56,16.57,11.67.63,7.6-5.62,12.1-16.2,12.11-52.56.05-105.12-.02-157.69.06-8.35.01-15.04-2.22-15.23-11.81-.2-9.74,6.44-12.03,14.86-12,26.63.12,53.26.04,79.89.04Z"/>
  <path class="cls-1" d="m161.1,733.99c-26.29,0-52.57.05-78.86-.02-10.68-.03-16.82-4.39-16.3-12.05.69-10.12,7.87-12.01,16.42-12,52.22.06,104.44.04,156.66.03,8.41,0,16.15,1.48,16.01,12.05-.13,10.31-7.57,12.07-16.13,12.03-25.93-.11-51.87-.04-77.81-.04Z"/>
  <path class="cls-1" d="m922.16,733.99c-26.28,0-52.56.11-78.84-.12-4.01-.04-9.42-.42-11.66-2.92-2.77-3.09-4.87-9.23-3.63-12.8,1.21-3.5,6.82-7.42,10.74-7.69,13.95-.97,28.01-.51,42.02-.51,37.85-.02,75.69-.01,113.54,0,3.15,0,6.31,0,9.46.15,7.41.35,12.27,4.28,12.27,11.65,0,7.87-5.11,12.1-12.94,12.16-19.62.15-39.25.07-58.87.08-7.36,0-14.72,0-22.08,0Z"/>
  <path class="cls-1" d="m139.22,605.01c19.29,0,38.58.14,57.87-.06,8.2-.09,14.36,2.78,14.55,11.43.21,9.21-6.01,12.38-14.72,12.35-38.58-.14-77.16-.16-115.74.01-8.63.04-15.14-2.84-15.11-12.01.03-9.28,6.75-11.9,15.28-11.79,19.29.24,38.58.07,57.87.08Z"/>
  <path class="cls-1" d="m943.49,628.67c-19.29,0-38.58-.17-57.86.08-8.59.11-15.16-2.7-15.19-11.91-.03-9.28,6.59-11.93,15.16-11.89,38.57.17,77.15.16,115.72.01,8.15-.03,13.88,2.68,14.82,11.31.8,7.4-5.18,12.31-14.79,12.37-19.29.12-38.57.04-57.86.04Z"/>
  <path class="cls-1" d="m541.05,856.92c-23.86,0-47.72-.07-71.58.04-8.25.04-14.89-1.9-15.54-11.59-.53-8.01,4.99-12.22,15.86-12.23,48.07-.05,96.14.03,144.21-.07,8.3-.02,14.87,1.94,15.56,11.56.57,7.94-4.99,12.21-15.88,12.26-24.21.11-48.42.03-72.63.03Z"/>
  <path class="cls-1" d="m541.28,585.69c-113.53-.37-206.22-93.89-205.44-207.26.79-114.31,93.04-205.93,206.94-205.53,113.6.4,205.31,93.34,204.81,207.57-.5,113.27-93.3,205.59-206.3,205.22Zm.31-24.32c100.46.12,182.26-81.54,182.34-182.01.08-100.27-81.93-182.59-181.98-182.67-100.24-.08-182,81.78-182.08,182.3-.08,100.78,81.1,182.26,181.72,182.37Z"/>
  <path class="cls-1" d="m449.1,363.26c10.47-10.79,19.47-20.11,28.51-29.38,4.52-4.63,9.98-10.04,16.18-5.31,3.91,2.99,6.92,9.59,7.08,14.68.73,23.49.19,47.01.39,70.52.07,8.47-2.25,15.2-11.72,15.23-9.41.02-12.02-6.59-11.88-15.11.22-14.27.06-28.55.06-45.85-5.97,5.93-10.05,9.97-14.11,14.01-12.42,12.37-16.31,12.47-28.33.27-4.08-4.14-7.74-8.7-11.59-13.07-.92.52-1.85,1.04-2.77,1.55,0,14.56.14,29.12-.05,43.67-.13,9.68-4.96,15.15-12.61,14.58-7.03-.52-11.07-4.71-11.13-11.61-.23-25.96-.43-51.94.21-77.88.1-3.93,3.95-9.68,7.45-11.08,3.47-1.38,9.94.31,12.94,3.03,10.57,9.63,20.22,20.28,31.39,31.74Z"/>
  <path class="cls-1" d="m645.86,394.79c0,8.83.19,16.15-.05,23.46-.25,7.64-3.99,13.14-11.94,13.26-7.99.12-12.04-5.29-12.14-12.96-.33-26.28-.58-52.56-.39-78.84.06-8.07,4.57-12.96,13.3-12.83,7.69.11,15.4-.2,23.08.11,18.91.77,32.99,15.33,33.03,33.87.04,18.56-14.01,33.07-32.9,33.91-3.43.15-6.88.02-12,.02Zm.73-21.17c7.51-3.06,13.63-4.7,18.57-8.07,1.56-1.06,1.24-8.94-.46-9.96-5.06-3.05-11.24-4.25-18.12-6.55v24.58Z"/>
  <path class="cls-1" d="m562.1,386.69c7.78-18.12,14.49-33.43,20.91-48.86,3.19-7.65,7.72-12.88,16.71-10.09,7.43,2.31,9.48,9.81,5.43,19.4-10.07,23.88-19.95,47.85-30.81,71.36-2.08,4.49-8.16,9.45-12.69,9.75-3.77.25-9.71-5.22-11.69-9.54-10.93-23.87-20.95-48.16-31.28-72.31-3.33-7.79-2.9-15,5.7-18.49,8.1-3.29,13.26,1.48,16.38,8.78,6.72,15.72,13.42,31.45,21.33,50Z"/>
</svg>