<?xml version="1.0" encoding="UTF-8"?>
<svg id="Layer_1" data-name="Layer 1" xmlns="http://www.w3.org/2000/svg" viewBox="0 0 1080 882">
  <defs>
    <style>
      .cls-1 {
        stroke-width: 0px;
      }
    </style>
  </defs>
  <path class="cls-1" d="m538.95,868c-160.1,0-320.21,0-480.31,0-35.36,0-52.18-16.87-52.18-52.31,0-249.17,0-498.35,0-747.52,0-35.38,16.82-52.14,52.31-52.14,320.21,0,640.41,0,960.62,0,35.42,0,52.2,16.8,52.2,52.28,0,249.17,0,498.35,0,747.52,0,35.34-16.89,52.17-52.34,52.17-160.1,0-320.21,0-480.31,0Zm-496.98-124.25c0,24.54,0,47.43,0,70.31,0,17.95.5,18.43,18.94,18.43,318.64,0,637.29,0,955.93,0,3.33,0,7.28,1.08,9.83-.33,3.65-2.02,8.85-5.82,8.94-8.98.72-26.11.41-52.26.41-79.43h-12.93c-70.24,0-140.47.25-210.7-.35-7.76-.07-16.44-3.53-23-7.94-12.83-8.64-24.67-18.81-36.5-28.85-5.38-4.56-9.77-5.78-16.66-2.62-15.03,6.87-30.51,5.86-44.69-2.46-6.13-3.59-9.93-2.89-15.55.76-59.7,38.78-124.45,50.37-193.92,34.75-32.06-7.21-61.23-21.16-87.95-39.78-18.23,12.15-36.61,14.34-56.34,5.56-2.64-1.17-7.72.53-10.42,2.57-12.99,9.77-25.07,20.81-38.47,29.95-6.53,4.45-15.23,8-22.97,8.06-70.23.61-140.47.36-210.7.36h-13.25Zm642.69-451.04c17.24-11.49,35.62-13.86,55.37-5.15,2.7,1.19,7.79-.26,10.45-2.25,12.72-9.52,25.3-19.28,37.3-29.69,7.8-6.77,16.13-9.06,26.31-9.02,69.89.31,139.78.16,209.68.16h11.43v-88.13H42.73v88.13h12.82c70.26,0,140.53-.23,210.78.34,7.43.06,15.81,3.35,22.03,7.64,13.66,9.43,26.08,20.62,39.31,30.7,2.5,1.9,7.21,3.68,9.53,2.59,20-9.42,38.71-6.91,56.22,4.66,97.31-61.25,194.03-62.07,291.23.01Zm350.92-10.44h-12.86c-55.08,0-110.27,2.11-165.2-.78-33.54-1.77-60.43,6.23-82.98,30.39-.75.8-2.13,1.24-2.49,2.14-1.36,3.38-3.92,7.15-3.33,10.27,2.91,15.46-.6,29.1-8.72,42.29-1.99,3.24-2.71,9.18-1.1,12.43,38.43,77.47,38.5,154.74.12,232.25-1.63,3.3-1.14,9.27.84,12.46,8.19,13.16,11.66,26.79,8.96,42.26-.59,3.38,1.38,8.57,3.99,10.89,9.93,8.83,20.23,17.35,31.15,24.89,5.02,3.47,11.77,6.19,17.76,6.23,67.65.43,135.3.28,202.95.25,3.57,0,7.13-.32,10.63-.49v-105.98c-40.7,0-80.6-.16-120.49.31-3.15.04-7.33,3.89-9.19,7.06-12.96,22.11-36.38,32.53-60.33,26.26-23.55-6.16-39.81-26.96-39.94-51.08-.13-24.59,16.32-45.68,40.4-51.82,23.92-6.09,47.53,4.24,59.73,26.99,2.95,5.49,6.2,6.93,11.99,6.9,36.97-.23,73.94-.1,110.9-.16,2.43,0,4.87-.59,7.17-.89v-141.07h-11.33c-34.38,0-68.76.2-103.14-.15-8.06-.08-12.91,1.51-17.21,9.52-10.91,20.3-34.82,29.94-56.8,24.73-23.11-5.47-39.85-24.57-41.61-47.49-1.76-22.87,11.22-44.31,32.23-53.26,21.63-9.22,48.47-4.95,60.63,14.96,9.96,16.31,22,16.7,37.27,16.35,25.13-.58,50.27-.16,75.41-.16h24.58v-106.5ZM42.19,388.74c41.53,0,82.11.12,122.68-.29,2.5-.03,5.73-3.75,7.31-6.51,9.93-17.41,24.66-27.36,44.63-28.52,26.75-1.54,49.55,16.72,55.03,43.34,5.08,24.63-9.51,50.42-33.66,59.51-24.61,9.26-52.11-.37-64.78-23.75-3.59-6.62-7.34-8.57-14.45-8.42-21.8.45-43.62.16-65.44.16-16.88,0-33.77,0-50.81,0v141.98c40.99,0,81.24.14,121.48-.31,2.8-.03,6.45-3.92,8.17-6.9,12.85-22.22,36.23-32.69,60.21-26.49,23.61,6.11,39.95,26.85,40.14,50.94.19,24.6-16.18,45.75-40.24,51.97-23.94,6.19-47.61-4.1-59.83-26.78-2.91-5.4-6-7.1-11.9-7.05-35.49.27-70.98.13-106.48.13h-11.4v106.49c73.36,0,145.81.05,218.27-.16,3.32,0,7.16-1.62,9.86-3.67,11.76-8.94,23.4-18.09,34.59-27.73,2.44-2.11,4.51-6.92,3.91-9.91-3.2-15.86.34-29.85,8.92-43.27,1.87-2.94,2.51-8.48,1.01-11.48-38.76-77.8-38.88-155.41-.13-233.24,1.52-3.06,1.16-8.65-.7-11.52-8.68-13.38-12.23-27.35-9.18-43.22.59-3.06-1.21-7.91-3.6-10-10.29-8.99-20.88-17.72-32.04-25.57-4.71-3.31-11.11-5.91-16.76-5.95-68.02-.4-136.05-.26-204.08-.26h-10.73v106.47Zm-.21-267.01h994.11c0-17.76,0-34.73,0-51.7,0-18.02-.5-18.5-18.89-18.5-318.77,0-637.55,0-956.32,0-2.59,0-5.18.02-7.77,0-7.19-.04-11.1,3.39-11.12,10.72-.04,19.56-.01,39.12-.01,59.48Zm497.17,586.6c41.86-.67,80.68-11.79,116.16-34.52,6.18-3.96,8.84-7.87,8.37-15.9-1.78-30.56,21.06-54.5,51.69-56.4,4.09-.25,9.86-3.45,11.63-6.92,33.6-66.14,33.59-132.57.04-198.73-1.68-3.32-6.84-6.63-10.57-6.88-33-2.16-54.09-25.41-53.27-58.63.1-4.08-2.83-9.81-6.19-12.17-67.98-47.77-169.87-47.49-236.8.6-3.07,2.2-5.49,7.65-5.4,11.52.82,33.29-20.23,56.53-53.21,58.64-3.55.23-8.54,2.94-10.07,5.93-34.26,66.82-34.24,133.89-.01,200.72,1.53,2.99,6.51,5.74,10.05,5.96,32.44,2.03,54.64,25.47,52.81,57.44-.41,7.1,1.99,10.55,7.47,14.11,35.66,23.19,74.78,34.56,117.32,35.22Zm-159.99-372.95c-.1-9.56-7.98-17.44-17.54-17.54-9.95-.1-18.2,8.4-17.81,18.35.38,9.52,8.58,17.22,18.08,16.99,9.54-.23,17.37-8.3,17.27-17.8Zm355.05-.02c-.11-9.56-8-17.43-17.56-17.52-9.95-.09-18.2,8.42-17.79,18.37.39,9.52,8.59,17.21,18.1,16.98,9.54-.24,17.36-8.32,17.25-17.82Zm-514.28,88.81c9.51-.23,17.32-8.31,17.22-17.84-.1-9.52-8.05-17.46-17.57-17.52-9.97-.06-18.2,8.46-17.77,18.4.41,9.53,8.59,17.2,18.11,16.97Zm656.3-17.84c-.13-9.56-8.03-17.42-17.59-17.49-9.95-.07-18.18,8.45-17.76,18.4.41,9.52,8.62,17.2,18.13,16.94,9.53-.25,17.35-8.35,17.22-17.85Zm-639.08,177.25c-.23-9.52-8.3-17.36-17.8-17.29-9.55.08-17.47,7.99-17.54,17.53-.07,9.97,8.41,18.21,18.35,17.83,9.51-.36,17.21-8.56,16.99-18.08Zm639.08.86c.23-9.52-7.43-17.69-16.97-18.11-9.93-.44-18.45,7.8-18.38,17.77.06,9.53,7.97,17.47,17.51,17.57,9.52.1,17.62-7.72,17.84-17.23Zm-515.16,52.85c-9.54.25-17.34,8.31-17.23,17.84.11,9.98,8.73,18.08,18.65,17.52,9.49-.53,17.08-8.89,16.68-18.38-.4-9.51-8.63-17.23-18.1-16.98Zm373.15,17.78c.05-9.52-7.79-17.57-17.3-17.78-9.52-.21-17.69,7.51-18.03,17.04-.36,9.95,7.89,18.42,17.85,18.33,9.52-.08,17.43-8.04,17.48-17.58Z"/>
  <path class="cls-1" d="m858.47,87.48c-.26,9.6-8.56,17.47-18.13,17.21-9.63-.27-17.45-8.52-17.19-18.13.26-9.66,8.48-17.45,18.11-17.19,9.63.26,17.47,8.51,17.2,18.12Z"/>
  <path class="cls-1" d="m911.5,69.37c9.62-.18,17.8,7.7,17.99,17.33.18,9.59-7.74,17.81-17.35,17.99-9.6.18-17.79-7.72-17.97-17.35-.18-9.64,7.67-17.79,17.33-17.97Z"/>
  <path class="cls-1" d="m1000.49,87.89c-.49,9.58-9,17.29-18.53,16.8-9.59-.5-17.27-8.97-16.78-18.54.49-9.63,8.92-17.28,18.52-16.79,9.61.49,17.29,8.96,16.8,18.52Z"/>
  <path class="cls-1" d="m716.53,495.67c.09,96.73-79.62,176.8-176.29,177.08-98.43.28-178.72-79.15-178.71-176.8,0-98.94,79.37-178.16,178.48-178.15,97.08,0,176.43,79.96,176.52,177.88Zm-177.21-142.37c-78.01-.33-141.92,63.17-142.3,141.38-.38,77.91,63.45,142.38,141.16,142.57,78.45.19,142.46-62.95,142.81-140.88.36-78.89-62.86-142.74-141.68-143.07Z"/>
  <path class="cls-1" d="m627.78,500.4c0,12.92-.13,25.85.05,38.77.12,8.6-3.42,14.82-10.84,19.08-23.03,13.23-46.06,26.46-68.99,39.85-7.4,4.32-14.45,4.56-21.92.2-23.25-13.57-46.9-26.51-69.68-40.84-5.02-3.16-9.81-10.94-10.03-16.78-1.05-27.28-1.04-54.65-.02-81.93.22-5.89,4.72-13.83,9.69-16.96,23.08-14.53,46.72-28.27,70.87-40.93,5.46-2.86,15.04-2.69,20.55.21,23.81,12.53,47.16,26.04,69.85,40.49,5.18,3.3,9.3,11.51,10.02,17.9,1.52,13.49.46,27.27.46,40.93Zm-51.21-41.85c-12.89-7.49-24.26-14.26-35.83-20.65-1.87-1.03-5.19-1.3-6.97-.33-11.9,6.48-23.56,13.4-36.52,20.88,12.86,7.49,24.16,14.39,35.84,20.59,2.28,1.21,6.51.61,9-.72,11.02-5.91,21.74-12.39,34.49-19.77Zm-95.17,32.13c0,13.43-.12,25.11.12,36.78.04,1.87,1.2,4.54,2.69,5.43,11.78,7.1,23.76,13.87,36.36,21.14q3.02-39.4-28.47-57.41c-2.86-1.63-5.76-3.19-10.71-5.93Zm75.4,61.31c11.98-6.92,22.42-12.8,32.63-19.04,1.49-.91,2.66-3.55,2.7-5.41.24-11.65.12-23.3.12-36.9-11.92,6.85-22.39,12.7-32.63,18.92-1.49.91-2.66,3.56-2.7,5.44-.24,11.63-.12,23.27-.12,36.99Z"/>
</svg>