<?xml version="1.0" encoding="UTF-8"?>
<svg id="Layer_1" data-name="Layer 1" xmlns="http://www.w3.org/2000/svg" viewBox="0 0 1080 1080">
  <defs>
    <style>
      .cls-1 {
        stroke-width: 0px;
      }
    </style>
  </defs>
  <path class="cls-1" d="m539.39,978.77c-143.8,0-287.6.01-431.4,0-56.22,0-91.3-35.18-91.3-91.55,0-231.74-.01-463.47,0-695.21,0-55.69,35.22-91.03,90.74-91.03,288.3-.01,576.6-.01,864.91,0,55.53,0,90.78,35.33,90.78,91,.02,232.09.02,464.18,0,696.27,0,54.96-35.45,90.52-90.22,90.53-144.5.03-289,0-433.51,0ZM50.44,337.82v11.82c0,179.65,0,359.31,0,538.96,0,35.88,20.37,56.41,56.02,56.41,288.94.02,577.88.02,866.82,0,35.77,0,56.06-20.41,56.06-56.37.02-180.01,0-360.01,0-540.02,0-3.67,0-7.34,0-10.8H50.44Zm.15-34.96h977.89c.39-1.32.74-1.97.74-2.61.07-35.5.12-71.01.13-106.51.01-39.69-19.21-59.01-58.68-59.01-287.15,0-574.31,0-861.46,0-3.87,0-7.74-.12-11.59.13-24.61,1.59-46.16,21.55-46.77,46.12-1,40.35-.27,80.75-.27,121.87Z"/>
  <path class="cls-1" d="m928.98,763.08c17.05,4.33,33.68,8.71,50.4,12.72,8.69,2.09,15.05,6.42,15.98,15.76.94,9.45-4.87,14.66-12.77,18.51-17.04,8.31-34.13,16.56-50.76,25.63-4.82,2.63-9.35,7.33-11.98,12.18-9.03,16.66-17.25,33.77-25.6,50.8-3.89,7.94-9.38,13.49-18.78,12.29-9.31-1.19-13.26-7.73-15.34-16.41-5.38-22.46-11.24-44.8-17.05-67.72-21.23,0-41.94.07-62.65-.02-15.14-.07-21.06-5.94-21.08-21.08-.07-42.2-.07-84.4,0-126.59.03-15.17,5.9-21,21.05-21.09,15.05-.09,30.11-.02,45.79-.02v-33.25h-268.65v33.25c15.03,0,30.02-.05,45.02.01,15.9.07,21.69,5.75,21.72,21.51.06,41.85.06,83.69,0,125.54-.02,15.89-5.77,21.7-21.52,21.73-41.84.06-83.68.06-125.52,0-15.91-.02-21.68-5.73-21.71-21.52-.06-41.85-.06-83.69,0-125.54.02-15.93,5.72-21.64,21.49-21.72,14.76-.07,29.52-.02,45.14-.02v-33.04H253.58v33.04c14.31,0,28.9-.02,43.5,0,18.07.03,23.39,5.23,23.4,23.01.03,41.14.04,82.29,0,123.43-.02,16.64-5.59,22.33-21.96,22.35-41.84.05-83.68.06-125.52,0-15.27-.02-21.23-5.87-21.26-20.9-.08-42.2-.07-84.4,0-126.59.02-15.29,5.83-21.18,20.87-21.27,15.07-.1,30.14-.02,46.62-.02,0-15.58-.04-30.56.01-45.54.06-16.44,5.63-21.97,22.3-21.97,89.3-.03,178.61-.01,267.91-.01h13v-50.64c-14.36,0-28.95.02-43.55,0-18.07-.03-23.35-5.22-23.37-23.05-.03-41.14-.04-82.29,0-123.43.02-16.67,5.54-22.29,21.96-22.31,41.84-.05,83.68-.06,125.52,0,15.25.02,21.23,5.87,21.26,20.89.08,42.2.07,84.4,0,126.59-.02,15.24-5.9,21.18-20.91,21.28-15.07.1-30.13.02-45.89.02v50.64h12.56c88.95,0,177.9,0,266.85,0,18.64,0,23.66,5.07,23.7,23.78.03,13.36.04,26.72.08,40.09,0,.68.23,1.36.65,3.65,14.26,0,28.86-.02,43.46,0,18.02.03,23.27,5.24,23.31,23.11.06,26.37.08,52.74.15,79.12,0,.67.34,1.34.73,2.82Zm-338.92-357.53h-99.96v100.02h99.96v-100.02Zm-403.84,286.71v99.98h99.96v-99.98h-99.96Zm303.47,100.31h100.26v-100.09h-100.26v100.09Zm344.73.03c-2.2-9.19-4.26-17.67-6.25-26.18-3.9-16.71,6.08-26.55,22.93-22.56,14.14,3.35,28.25,6.8,42.5,10.24v-61.48h-99.97v99.97h40.79Zm94.08,7.62l-1.4-2.7c-19.58-4.85-39.15-9.69-60.13-14.88,5.31,21.22,10.2,40.76,15.09,60.29,9-21.38,23.13-36.68,46.44-42.71Z"/>
  <path class="cls-1" d="m657.89,269.76c-50.61,0-101.22.2-151.83-.09-26.54-.15-48.17-20.32-50.38-45.97-2.25-25.98,15.32-49.18,41.29-54.33,3.42-.68,6.98-.85,10.47-.85,100.52-.04,201.03-.12,301.55.02,27.37.04,49.13,19.83,51.44,45.99,2.28,25.96-15.25,49.19-41.29,54.29-4.77.93-9.78.9-14.68.91-48.85.06-97.7.04-146.56.03Zm.04-33.75c48.17,0,96.34,0,144.51,0,3.16,0,6.4.31,9.47-.25,9.07-1.66,14.63-7.2,14.69-16.52.06-9.32-5.39-14.96-14.47-16.7-3.06-.59-6.31-.27-9.47-.27-96.34-.01-192.67-.01-289.01,0-3.51,0-7.15-.35-10.51.41-8.5,1.94-13.61,7.48-13.68,16.33-.07,8.88,5.02,14.45,13.46,16.53,3.34.82,6.99.46,10.5.46,48.17.02,96.34.02,144.51.02Z"/>
  <path class="cls-1" d="m1009.85,255.6c-10.76,10.06-18.41,17.21-26.35,24.63.07.02-.87.08-1.19-.33-8.56-10.98-17.85-14.49-32.91-11.02-21.03,4.84-42.58-10.05-51.05-30.45-8.56-20.6-2.9-43.53,14.35-58.09,16.63-14.03,40.12-15.71,58.83-4.21,18.83,11.58,28.37,34.25,22.01,55.43-2.29,7.62-1.46,12.72,4.85,16.98,3.52,2.38,7.24,4.46,11.48,7.05Zm-65.12-53.27c-9.11.16-16.53,7.69-16.55,16.8-.02,9.48,8.11,17.27,17.57,16.81,9.05-.44,16.32-8.28,16.03-17.32-.29-9.08-8-16.45-17.05-16.29Z"/>
  <path class="cls-1" d="m134.57,168.56c28.05-.1,50.96,22.83,50.81,50.85-.15,27.56-22.67,50.07-50.34,50.31-27.47.24-50.56-22.4-50.8-49.81-.25-28.16,22.39-51.26,50.33-51.36Zm17.06,51.06c.27-9.06-6.99-16.89-16.04-17.29-9.48-.42-17.56,7.33-17.55,16.84,0,9.08,7.48,16.64,16.56,16.77,9.05.13,16.76-7.26,17.03-16.32Z"/>
  <path class="cls-1" d="m252.63,269.73c-27.44-.03-50.26-22.91-50.24-50.37.02-28.13,22.89-50.96,50.89-50.8,27.58.16,50.16,22.79,50.25,50.36.09,28.01-22.79,50.84-50.9,50.81Zm.05-33.79c9.05.17,16.79-7.19,17.1-16.25.31-9.05-6.94-16.92-15.98-17.36-9.47-.46-17.59,7.27-17.62,16.77-.03,9.07,7.42,16.67,16.5,16.84Z"/>
  <path class="cls-1" d="m320.53,219.01c.18-28.1,23.21-50.78,51.24-50.45,27.54.32,49.98,23.12,49.9,50.71-.08,27.98-23.12,50.67-51.25,50.46-27.41-.2-50.07-23.24-49.89-50.72Zm67.39.63c.29-9.06-6.97-16.9-16.02-17.31-9.48-.43-17.57,7.31-17.57,16.82,0,9.08,7.46,16.65,16.54,16.79,9.05.14,16.77-7.24,17.05-16.3Z"/>
</svg>