<?xml version="1.0" encoding="UTF-8"?>
<svg id="Layer_1" data-name="Layer 1" xmlns="http://www.w3.org/2000/svg" viewBox="0 0 384 384">
  <path d="m232.03,383c31.91-28.06,60.05-59.92,90.25-89.7,4.81-4.74,6.07-9.98,3.7-15.03-2.65-5.66-7.32-7.86-13.48-7.71-16.29.4-12.23-2.25-24.92,10.56-8.17,8.25-16.42,16.41-24.68,24.56-3.57,3.52-7.26,3.85-10.05,1.06-2.78-2.78-2.4-6.54,1.09-10.03,10.34-10.36,20.72-20.69,31.05-31.07,5.3-5.32,11.5-8.2,19.14-7.75,3.29.19,6.59-.03,9.89.04,11.11.24,19.27,5.38,23.63,15.54,4.46,10.41,2.14,20.02-5.63,28.04-15.88,16.38-31.97,32.57-47.98,48.83-10.73,10.9-21.47,21.79-32.21,32.68h-19.79Z"/>
  <path d="m257.76,4.18c24.01,0,48.02,0,72.02,0,1.45,0,2.92-.07,4.34.16,3.48.54,5.49,2.74,5.47,6.19-.02,3.44-1.98,5.67-5.5,6.15-1.56.21-3.16.15-4.74.15-44.59,0-89.17.01-133.76,0-19.18,0-37.13,4.43-53.08,15.34-4.86,3.33-9.43,7.24-13.59,11.42-25.46,25.65-50.75,51.47-76.15,77.18-4.28,4.33-6.3,9.17-3.87,15.01,2.49,5.98,7.46,8.2,13.7,8.01,15.38-.46,11.94,2.41,24.32-10.17,8.51-8.65,17.18-17.14,25.8-25.68,2.43-2.41,5.28-3.01,8.27-1.2,2.71,1.65,3.46,4.26,2.55,7.21-.33,1.08-1.08,2.12-1.89,2.94-10.88,10.94-21.77,21.87-32.75,32.72-4.71,4.65-10.45,6.99-17.14,6.86-3.43-.07-6.86.05-10.29-.02-11.35-.26-19.86-5.25-24.26-15.84-4.35-10.46-1.91-19.98,5.86-27.99,14.06-14.48,28.28-28.8,42.44-43.17,10.92-11.09,22.03-22,32.77-33.25,20.88-21.87,46.68-31.79,76.54-31.98,20.97-.13,41.95-.02,62.92-.03Z"/>
  <path d="m187.62,137.47c38.51.08,69.67,31.29,69.63,69.77-.04,38.53-31.56,69.82-70.21,69.68-38.39-.14-69.59-31.66-69.36-70.06.24-38.65,31.3-69.46,69.93-69.39Zm.04,12.67c-31.63-.13-57.12,25.14-57.28,56.78-.16,31.52,25.33,57.23,56.82,57.32,31.51.09,57.25-25.42,57.38-56.86.13-31.47-25.37-57.11-56.91-57.24Z"/>
  <path d="m195.67,54.94c11.08,0,22.16,0,33.23.01,1.45,0,2.93-.01,4.33.28,3.14.67,4.75,2.93,4.79,5.96.03,3.03-1.52,5.35-4.66,6.06-1.52.35-3.14.33-4.71.33-21.63.02-43.26-.03-64.88.04-9.37.03-14.97,5.65-14.25,13.99.53,6.04,5.31,10.85,11.38,11.12,10.4.46,20.81.7,31.21,1.13,16.81.69,33.15,3.88,49.33,8.47,13.19,3.74,26.8,5.77,39.95.17,7.46-3.18,14.36-7.71,21.35-11.91,6.92-4.15,13.86-8.17,21.97-9.49,2.59-.42,5.24-.65,7.86-.68,4.09-.05,6.84,2.39,7.02,5.94.17,3.45-2.44,6.54-6.45,6.57-9.01.07-16.55,3.85-23.83,8.54-2.33,1.5-4.73,2.89-6.99,4.48-19.38,13.58-40.69,15.55-62.68,8.98-24.97-7.45-50.41-9.49-76.21-9.07-14.44.23-26.16-10.53-26.65-24.65-.49-14.17,9.97-25.62,24.47-26.11,11.46-.38,22.94-.08,34.42-.08,0-.02,0-.05,0-.07Z"/>
  <path d="m179.15,359.31c-11.47,0-22.95.02-34.42,0-5.08-.01-7.8-2.27-7.77-6.34.03-4.03,2.8-6.3,7.87-6.31,22.55-.02,45.11.05,67.66-.04,9.4-.04,15.46-8.65,12.27-17.12-1.89-5.03-6.45-8-12.35-8.21-12.38-.44-24.77-.79-37.14-1.45-14.02-.75-27.59-3.92-41.07-7.73-11.88-3.36-24.15-5.6-36.22-1.73-7.04,2.26-13.56,6.27-20.17,9.77-6.16,3.25-11.87,7.52-18.28,10.11-5.37,2.16-11.42,2.87-17.25,3.58-4.06.49-6.71-2.32-6.8-5.99-.09-3.69,2.38-6.46,6.44-6.49,8.27-.05,15.26-3.42,22.15-7.51,8.03-4.76,15.93-9.92,24.43-13.68,15.2-6.73,31.2-5.43,46.53-.86,24.97,7.46,50.42,9.36,76.21,9.34,3,0,6.1.3,8.97,1.12,11.67,3.34,19.52,15.32,17.94,27-1.75,12.92-11.86,22.32-24.56,22.5-11.47.16-22.95.03-34.42.03v.02Z"/>
  <path d="m187.64,239.19c-.51,5.03,1.22,12.06-6.58,12.07-7.87,0-5.8-7.19-6.48-12.38-2.19,0-4.14.11-6.08-.02-4-.27-6.47-2.93-6.32-6.63.14-3.5,2.63-5.9,6.53-5.98,5.8-.11,11.61,0,17.41-.05,4.63-.04,7.4-2.49,7.38-6.39-.02-3.92-2.72-6.29-7.45-6.24-5.73.07-11.37-.03-16.18-3.81-6.57-5.17-8.98-11.92-7.17-19.98,1.7-7.59,8.14-13.02,16.22-14.19.63-.09,1.25-.22,1.97-.36.87-4.87-1.55-12.12,6.52-12.13,7.96-.01,5.93,7.09,6.73,12.42,1.86,0,3.66-.06,5.47.01,3.91.15,6.41,2.44,6.57,5.93.17,3.67-2.32,6.51-6.31,6.65-5.66.19-11.34.06-17.01.07-5.18.01-7.9,2.09-8,6.09-.1,4.19,2.74,6.66,8,6.54,6.06-.14,11.86.29,16.7,4.56,5.78,5.11,7.88,11.57,6.13,18.92-1.76,7.36-6.63,12.11-14.08,14.01-1.25.32-2.52.58-3.94.9Z"/>
</svg>