<?xml version="1.0" encoding="UTF-8"?>
<svg id="Layer_1" data-name="Layer 1" xmlns="http://www.w3.org/2000/svg" viewBox="0 0 391.88 391.88">
  <path d="m103.19,160.64c0,8.41-.58,16.56.14,24.59,1.09,12.12-1.57,22.94-8.54,32.83-1.28,1.82-2.16,3.93-3.27,5.99,4.51,5.48,6.84,11.54,5.36,18.75-2.25,10.94-12.51,18.01-23.7,16.22-10.95-1.76-18.24-11.76-16.92-23.21,1.22-10.55,11.14-18.7,21.88-17.67,2.35.23,3.17-.67,4.33-2.36,7.02-10.24,10.22-21.28,8.9-33.83-.73-6.9-.13-13.95-.13-21.2h-19.95c0,8.3-.55,16.56.16,24.71.68,7.89-1.81,13.28-8.97,16.52-.34.15-.61.44-.94.61-4.11,2.09-6.19,4.49-5.56,10.03,1.05,9.11-5.96,17.57-14.83,20.05-9.12,2.55-18.77-1.36-23.51-9.53-4.63-7.99-3.31-18.31,3.2-24.92,6.5-6.61,16.74-8.05,24.81-3.48.98.55,1.9,1.19,3.07,1.93,3.04-2.01,6.17-4.02,9.22-6.16.62-.43,1.29-1.33,1.3-2.02.09-9.22.06-18.43.06-28.02-2.23,0-4.08.08-5.92-.02-4.06-.21-6.45-2.28-6.53-6.23-.17-7.87-.17-15.75,0-23.62.09-3.99,2.45-6.01,6.58-6.05,6.11-.07,12.21-.02,17.44-.02,5.25-12.69,10.29-24.86,15.68-37.87-3.36-3.31-7.55-7.37-11.66-11.5-4.02-4.04-4.01-6.78.05-10.85,10.48-10.54,20.98-21.06,31.5-31.56,3.95-3.94,6.84-3.92,10.85.06,4.07,4.05,8.07,8.16,11.47,11.61,12.69-5.27,24.84-10.32,37.69-15.65,0-4.73-.02-10.58,0-16.44.03-5.64,2.04-7.67,7.68-7.67,14.85-.02,29.7-.02,44.55,0,5.62,0,7.64,2.05,7.66,7.69.03,5.74,0,11.48,0,16.45,12.58,5.2,24.71,10.22,37.92,15.67,3.15-3.27,7.15-7.52,11.26-11.66,3.98-4.01,6.88-4.01,10.84-.06,10.52,10.5,21.02,21.02,31.5,31.56,4.03,4.05,4.04,6.83.02,10.87-4.05,4.06-8.19,8.04-11.7,11.47,5.34,12.87,10.43,25.13,15.72,37.89,4.74,0,10.35-.01,15.96,0,6.2.02,8.1,1.87,8.13,7.97.03,6.62.03,13.25,0,19.88-.03,6.08-2.02,8.04-8.13,8.1-1.34.01-2.68,0-4.38,0,0,9.61-.04,18.83.07,28.05,0,.75.92,1.67,1.64,2.19,2.83,2.03,5.76,3.93,8.81,5.98,5.8-4.18,12.12-5.77,19.07-3.76,10.52,3.04,16.88,14.09,14.27,24.71-2.63,10.7-13.41,17.66-23.95,15.48-11.09-2.3-18.39-12.58-16.49-23.53.38-2.19-.04-3.43-1.93-4.57-3.2-1.93-6.2-4.2-9.38-6.17-2.94-1.82-4.2-4.28-4.16-7.78.12-9.75.02-19.5,0-29.25,0-.24-.1-.48-.22-1.03h-19.68v3.98c0,10.13-.16,20.25.1,30.37.07,2.85.98,5.84,2.18,8.45,2.03,4.41,4.51,8.63,7.02,12.79.53.89,2.05,1.73,3.08,1.68,10.76-.51,19.38,5.35,22.11,15.23,2.53,9.18-1.72,19.07-10.16,23.6-8.58,4.61-19.26,2.6-25.49-4.79-6.54-7.76-6.63-18.03-.24-26.55.3-.4.6-.79,1.11-1.47-3.1-5.69-6.45-11.36-9.3-17.28-1.3-2.7-2.21-5.86-2.28-8.84-.26-10.99-.11-22-.11-33,0-1.35,0-2.69,0-4.25-1.07-.11-1.78-.22-2.5-.24-5.76-.23-7.48-1.97-7.66-7.75-1.2-38.68-27.25-70.58-64.86-79.4-47.93-11.23-96.15,23.59-100.66,72.7-.22,2.36-.41,4.73-.51,7.1-.22,5.24-2.05,7.1-7.33,7.33-.74.03-1.48.1-2.83.18Zm230.59-12.14v-12.01c-5.41,0-10.62.02-15.83,0-5.42-.03-7.25-1.41-8.35-6.58-2.9-13.71-8.2-26.42-15.74-38.21-3-4.7-2.73-6.78,1.3-10.81,3.69-3.69,7.42-7.33,10.58-10.44-8.7-8.74-17.04-17.1-25.59-25.69-3.44,3.52-7.15,7.4-10.95,11.2-3.43,3.43-5.64,3.74-9.59,1.16-12.15-7.93-25.36-13.26-39.5-16.41-4.38-.98-5.74-2.77-5.77-7.35-.03-5.47,0-10.93,0-16.53h-35.95c0,5.46.01,10.68,0,15.91-.01,5.42-1.23,7.07-6.62,8.23-13.68,2.95-26.34,8.3-38.12,15.83-4.66,2.98-6.55,2.75-10.47-1.23-3.73-3.78-7.37-7.66-10.79-11.22-8.85,8.89-17.11,17.19-25.69,25.82,3.44,3.38,7.09,6.94,10.7,10.54,4.33,4.32,4.51,6.16,1.18,11.41-7.29,11.5-12.46,23.86-15.34,37.18-1.27,5.89-2.87,7.16-8.99,7.18-5.06.01-10.13,0-15.26,0v11.67h42.53c2.03-24.18,11.29-44.86,28.49-61.69,17.21-16.84,37.97-25.91,62-27.06,21.8-1.04,41.78,4.78,59.45,17.62,24.1,17.53,37.09,41.53,39.81,71.23,1,.09,1.72.22,2.45.22,13.22.01,26.43,0,40.06,0ZM35.5,221.41c4.79,0,8.83-4.1,8.71-8.84-.12-4.68-3.99-8.45-8.7-8.46-4.76-.01-8.52,3.68-8.61,8.44-.09,4.94,3.71,8.85,8.59,8.85Zm330.32-8.69c-.01-4.77-3.71-8.54-8.46-8.6-4.84-.07-8.89,3.89-8.87,8.67.02,4.62,3.92,8.55,8.56,8.63,4.88.08,8.78-3.79,8.77-8.7Zm-297.76,26.09c.07,4.75,3.86,8.53,8.56,8.55,4.78.02,8.84-4.08,8.75-8.84-.09-4.65-4.02-8.52-8.66-8.54-4.87-.03-8.72,3.91-8.65,8.83Zm256.6-.32c-.08-4.75-3.89-8.51-8.6-8.51-4.79,0-8.83,4.11-8.71,8.87.12,4.65,4.05,8.5,8.69,8.51,4.85.01,8.7-3.96,8.62-8.87Z"/>
  <path d="m161.79,235.62c2.16-9.71-2.67-15.07-10.36-20.49-24.88-17.53-35.85-49.31-28.47-79.32,7.18-29.22,32.05-51.84,61.91-56.31,48.14-7.21,90.46,31.57,86.95,80.21-1.78,24.64-13.33,44.21-33.93,57.94-4.96,3.3-7.38,6.92-6.91,12.86.35,4.47.1,8.99.02,13.49-.1,5.54-2.67,9.69-7.13,12.9-1.1.79-2.11,2.39-2.26,3.72-1.42,12.61-9.21,19.76-21.92,19.8-3.49,0-7.01.15-10.46-.24-9.73-1.1-16.71-8.13-17.76-17.83-.29-2.72-.83-4.7-3.48-6.34-3.89-2.39-5.94-6.35-6.15-11.02-.14-3.12-.03-6.24-.03-9.37Zm57.25-8.92c.34-8.87,5.08-14.37,12.05-18.86,23.63-15.22,34.36-44.63,26.43-71.47-7.99-27.04-32.65-45.57-60.84-45.74-40.77-.24-71.31,37.46-62.52,77.34,3.78,17.15,13.12,30.64,27.86,40.13,6.49,4.18,10.95,9.35,11.56,17.3.03.45.33.88.49,1.26h8.02v-44.87c-1.71-.56-3.48-.88-4.98-1.7-4.56-2.49-9.41-4.69-13.43-7.89-5.11-4.08-7.68-9.86-6.78-16.61,1.31-9.87,10.03-17.13,19.53-16.49,10.11.68,17.55,8.46,17.77,18.7.1,4.35.02,8.69.02,13.18h4.25c0-3.94-.05-7.67.02-11.4.04-1.99.03-4.03.47-5.95,1.78-7.75,7.85-13.14,15.92-14.34,7.13-1.07,14.55,2.58,18.39,9.04,3.99,6.71,3.58,14.29-1.24,20.72-4.63,6.16-11.13,9.59-18.3,11.66-2.77.8-3.36,2.03-3.34,4.65.12,12.5.05,25,.06,37.5,0,1.22.11,2.44.17,3.85h8.4Zm-44.99,12.43c-1.01,7.05-.12,8.11,6.48,8.12,10.6,0,21.2,0,31.8,0,6.44,0,7.5-1.34,6.27-8.12h-44.56Zm9.47,20.39c.02,5.16,2.37,8.3,6.96,8.7,3.96.34,7.99.35,11.94-.04,4.61-.46,7-3.82,6.66-8.66h-25.57Zm14.66-32.83v-43.28h-3.63v43.28h3.63Zm-15.99-57.62c0-4.26.15-8.11-.05-11.93-.16-3.06-2.08-4.97-5.01-5.74-2.99-.78-5.4.27-7.14,2.72-1.79,2.52-1.7,5.16.18,7.59,2.99,3.89,7.1,5.94,12.02,7.36Zm28.37.05c5.05-1.61,9.34-3.61,12.25-7.79,1.68-2.41,1.87-5.3-.23-7.17-1.72-1.54-4.44-2.67-6.72-2.68-2.93,0-5.02,2.33-5.23,5.37-.27,3.92-.07,7.88-.07,12.26Z"/>
  <path d="m72.59,286.28c4.76-3.64,9.35-7.06,13.84-10.61,10.74-8.48,22.44-11.01,35.79-7.12,18.41,5.37,36.93,10.41,55.53,15.09,11.42,2.88,19.7,8.67,22.96,20.94,5.26-3.03,10.19-5.87,15.11-8.72,13.28-7.67,26.55-15.36,39.84-23.02,12.24-7.05,26.51-3.6,33.21,8,6.72,11.64,2.71,25.7-9.55,32.83-30.51,17.72-61.11,35.29-91.6,53.07-9.71,5.66-19.85,6.86-30.64,4.39-13.24-3.02-26.46-6.1-39.74-8.93-7.76-1.65-14.83.61-21.22,5.01-.82.57-1.41,2.25-1.27,3.31.86,6.52-1.59,10.52-7.95,12.35-4.19,1.2-8.4,2.34-12.61,3.45-8.09,2.13-12.51-.45-14.72-8.67-6.33-23.62-12.63-47.24-18.94-70.87-.93-3.5-1.96-6.97-2.82-10.48-1.66-6.77,1.12-11.5,7.85-13.38,4.08-1.14,8.18-2.18,12.28-3.28,7.36-1.97,10.87-.47,14.66,6.63Zm18.4,69.89c11-6.8,22.22-7.69,34-4.82,11.01,2.69,22.12,4.99,33.11,7.73,8.92,2.23,17.03,1.21,25.11-3.53,29.78-17.49,59.75-34.64,89.62-51.97,1.7-.98,3.39-2.21,4.63-3.7,3.62-4.37,3.41-10.58-.24-14.8-3.65-4.22-9.69-5.2-14.99-2.16-20.43,11.74-40.82,23.55-61.18,35.41-1.19.69-2.19,1.99-2.89,3.23-6.03,10.72-17.37,15.7-29.26,12.59-10.72-2.81-21.41-5.76-32.1-8.69-5.86-1.6-8.06-4.23-7-8.18,1.03-3.87,4.42-4.99,10.25-3.39,10.45,2.87,20.87,5.84,31.35,8.59,10.02,2.62,18.47-4.37,17.56-14.34-.52-5.63-4.37-10.01-10.55-11.71-20.3-5.57-40.65-10.96-60.91-16.65-8.11-2.28-15.3-.81-21.9,4.06-6.02,4.44-11.88,9.12-17.87,13.61-1.49,1.11-2.03,2.07-1.43,4.03,1.53,5.01,2.72,10.12,4.07,15.18,3.48,13,6.98,26,10.62,39.54Zm-41.31-61.86c7.22,26.95,14.35,53.59,21.53,80.42,4.12-1.14,7.67-2.11,11.47-3.16-7.2-26.92-14.31-53.48-21.5-80.36-3.91,1.05-7.58,2.04-11.51,3.1Z"/>
</svg>