<?xml version="1.0" encoding="UTF-8"?>
<svg id="Layer_1" data-name="Layer 1" xmlns="http://www.w3.org/2000/svg" viewBox="0 0 391.88 391.88">
  <path d="m48.94,387.94c-9.2-3.65-11.96-10.67-11.83-20.18.35-26.75.19-53.5.1-80.25-.07-19.09,6.75-35.03,22.08-46.54,5.38-4.04,12.12-6.25,18.14-9.47,1.2-.64,2.66-1.97,2.85-3.17,1.82-11.31,9.79-18.51,21.34-18.66,9.87-.14,19.78.4,29.61-.22,4.56-.29,8.99-2.59,13.47-4.02.32-.1.77-.48.78-.75.1-3.12-.07-6.26.23-9.36.32-3.33-.96-5.4-3.53-7.51-11.07-9.06-17.66-20.86-20.16-34.91-.41-2.29-1.14-3.2-3.53-3.76-14.42-3.37-23.39-14.8-22.28-28.18.56-6.73,3.77-12.31,8.34-17.43-5.28-5.56-6.22-12.3-6.09-19.51.2-11.25.05-22.5.05-33.75,0-24.56,13.2-40.81,37.19-45.84.35-.07.66-.33.99-.5,7.5,0,15,0,22.5,0,2.33,2.06,4.27,4.36,2.91,7.71-1.37,3.39-4.37,3.64-7.52,3.56-3.75-.09-7.5-.03-11.25-.02-19.71.06-33.5,13.77-33.57,33.45-.05,12.62-.02,25.24,0,37.86.01,8.5,3.87,12.42,12.34,12.43,20.49.03,40.99.07,61.48-.01,12.48-.05,22.12-5.39,28.63-16.09,1.86-3.06,4.13-5.06,7.91-4.13,3.74.93,4.89,3.68,5.19,7.29.55,6.8,5.77,12.13,12.12,12.76,4.11.41,6.22-1.3,6.24-5.43.07-13.87.13-27.74-.02-41.61-.08-7.41-4.75-11.75-12.12-11.81-8.54-.07-14.2-4.47-16.25-12.64-2.2-8.76-5.93-11.8-15.04-12.02-5.5-.13-11-.05-16.49-.05-2.79,0-4.86-1.17-5.79-3.86-1.13-3.26.84-5.38,2.98-7.39,7.75,0,15.5,0,23.25,0,1.2.31,2.39.64,3.59.93,9.74,2.3,15.49,8.57,18.02,18.06,1.43,5.37,1.77,5.64,7.04,5.72,11.04.16,20.75,8.37,21.64,19.44.78,9.69.49,19.47.44,29.21-.04,7.23-.47,14.45-.67,21.68-.02.64.14,1.55.57,1.91,7.57,6.35,11.08,14.54,11.01,24.44,5.8,0,11.4-.31,16.96.05,41.03,2.61,73.86,39.75,71.73,80.88-1.25,24.11-11.3,43.65-30.05,58.75-1.43,1.16-2.21,2.05-1.84,4.25,1.09,6.49,2.03,13.04,2.38,19.6.4,7.48.12,14.99.08,22.49-.02,4.61-1.88,6.93-5.45,6.99-3.69.06-5.75-2.43-5.77-7.15-.04-8.5.1-17-.07-25.49-.08-4.07-.7-8.13-1.04-11.79-10.39,2.93-20.23,5.7-30.4,8.57-.85,23.05.95,46.89-1.05,71,1.18,0,2.9-.03,4.61,0,5.62.14,8.86,3.27,8.98,8.83.1,4.6.02,9.19.02,14.3,4.7,0,10.12.24,15.51-.1,2.9-.18,3.46-2.71,3.45-5.34-.05-9.75-.02-19.49-.02-29.24,0-1-.05-2.01.06-3,.39-3.26,2.69-5.47,5.62-5.47,3.12,0,5.43,2.31,5.51,5.85.12,4.87.04,9.75.05,14.62,0,5-.28,10.01.06,14.99.64,9.48-3.2,15.85-12.21,19.01H48.94Zm222.01-106.32c-2.02-.33-3.5-.57-4.97-.82-32.95-5.67-54.92-24.09-64.94-56.19-.91-2.91-2.05-3.82-5.1-3.81-30.74.13-61.49.08-92.23.08-.87,0-1.75-.03-2.62.04-5.9.45-9.39,4.01-9.54,9.91-.1,4-.03,8-.03,12,0,33.49-.02,66.99.01,100.48,0,7.07,3.09,10.17,9.87,10.17,52.99,0,105.98,0,158.97,0,7.56,0,10.57-2.99,10.58-10.63.02-14.5,0-28.99,0-43.49,0-5.85,0-11.71,0-17.73Zm-55.37-50.52c7.32-7.32,14.3-14.47,21.5-21.39,2.06-1.98,2.55-3.87,2.16-6.59-3.98-28.03,21.89-52.45,49.79-47.19,4.11.78,7.49,2.28,8.77,6.5,1.26,4.16-.41,7.45-3.44,10.4-6.46,6.27-12.79,12.66-19.08,19.09-.84.86-1.78,2.28-1.67,3.33.86,7.79,1.84,8.67,9.13,10.8,2.51.73,4.11.25,5.9-1.6,6.34-6.55,12.87-12.93,19.31-19.39,2.74-2.75,6.01-3.61,9.62-2.4,3.5,1.17,5.26,3.84,5.99,7.48,5.14,25.92-15.24,51.29-41.73,50.4-7.9-.27-12.68,2.13-17.45,7.49-4.94,5.55-10.47,10.58-15.84,15.94,22.61,11.81,58.61,8.25,80.55-19.27,20.43-25.62,18.67-63.62-4.16-87.53-23.49-24.59-61.17-28.03-88.37-7.85-27.93,20.71-33.48,56.58-20.99,81.77Zm-83.2-120.91c0,12.14-.58,23.77.11,35.33,1.89,31.77,34.28,53.05,64.28,42.52,1.38-.48,3.05-1.98,3.39-3.31,4.43-17.31,13.59-31.49,27.41-42.78.99-.81,1.82-2.44,1.84-3.71.15-9.25.13-18.5.01-27.75-.01-1.01-.75-2.27-1.54-2.97-3.94-3.5-8-6.85-12.03-10.25.53-.74.39-.73.3-.66-.66.56-1.33,1.13-1.97,1.72-8.57,7.89-18.71,11.78-30.32,11.84-10.75.05-21.5.01-32.25.01-6.24,0-12.48,0-19.23,0Zm-52.1,133.15c-.39-.32-.78-.64-1.17-.97-4.48,2.57-9.36,4.65-13.38,7.8-11.86,9.31-17.32,21.82-17.28,36.89.09,27.6.02,55.19.03,82.79,0,1-.32,2.27.17,2.94,1.07,1.45,2.48,3.57,3.89,3.7,5.19.44,10.44.17,15.08.17,0-5.24-.11-10.19.03-15.13.13-4.56,3.23-7.69,7.78-8.01,2.09-.15,4.2-.03,5.67-.03-.29-5.63-.78-10.94-.79-16.24-.08-29.84-.04-59.69-.04-89.53,0-1.46,0-2.92,0-4.38Zm-1.1,121.56c-1.23,8.32.24,11.92,9.85,11.89,61.62-.2,123.25-.1,184.87-.1,1.25,0,2.51.07,3.75-.04,3.47-.31,5.49-2.3,5.92-5.69.24-1.93.04-3.92.04-6.06H79.18Zm233.65-168.51c-1.33,1.21-2.24,2-3.09,2.84-5.31,5.29-10.63,10.56-15.88,15.89-2.89,2.93-6.12,4.03-10.18,2.77-3.93-1.21-7.94-2.13-11.91-3.21-3.27-.89-5.43-2.94-6.32-6.25-1.04-3.85-2.02-7.72-3.15-11.54-1.26-4.24-.43-7.73,2.84-10.87,5.76-5.53,11.34-11.26,16.97-16.92.62-.62,1.11-1.37,1.82-2.26-18.04-1.52-33.27,12.29-33.93,30.28-.64,17.61,13.91,32.66,31.5,32.55,17.92-.11,32.35-15.06,31.33-33.27Zm-91.84,45.96c5.47,5.43,11.03,10.96,15.92,15.81,8.2-8.19,15.64-15.63,22.51-22.48-5.09-5.1-10.55-10.58-15.8-15.84-6.99,6.95-14.39,14.32-22.63,22.51Zm-22.97-41.87c-7.17.42-14.02,1.49-20.77,1.05-6.74-.44-13.39-2.38-20.42-3.72v11.53h41.19v-8.85Zm-77.13-89.99c-7.22-1.26-12.06,2.67-13.38,10.46-1.34,7.9,4.48,15.33,13.38,16.91v-27.37Zm119.85,22.66c4.23-1.62,7.94-2.96,11.56-4.5.75-.32,1.45-1.29,1.73-2.12,1.77-5.22-1.77-14.2-6.63-17.05-2.37-1.39-6.59.18-6.63,2.6-.1,6.82-.03,13.65-.03,21.07Z"/>
  <path d="m176.94,287.36c2.75,0,5.5-.09,8.25.02,3.43.14,5.54,2.16,5.62,5.27.09,3.27-1.69,5.54-4.75,5.71-6.22.34-12.49.34-18.72-.01-3.08-.17-4.89-2.55-4.7-5.75.19-3.15,2.06-5.06,5.3-5.2,2.99-.13,6-.03,9-.03,0,0,0,0,0-.01Z"/>
</svg>