<?xml version="1.0" encoding="UTF-8"?>
<svg id="Layer_1" data-name="Layer 1" xmlns="http://www.w3.org/2000/svg" viewBox="0 0 1080 1080">
  <defs>
    <style>
      .cls-1 {
        stroke-width: 0px;
      }
    </style>
  </defs>
  <path class="cls-1" d="m0,936.88c356.79-.02,713.59-.05,1070.38-.07,2.07,0,4.15,0,6.99,0v128.81H0v-128.73Zm687.12,31.81c-6.04,15.48-11.57,30.66-18.04,45.42-1.38,3.14-6.15,6.8-9.38,6.81-80.34.38-160.67.24-241.01.42-5.5.01-8.07-1.9-9.88-6.87-4.44-12.2-9.84-24.06-13.87-36.38-2.48-7.57-6.22-9.86-14.24-9.84-112.61.31-225.23.21-337.84.21-3.41,0-6.82,0-10.6,0v64.74h1013.5v-64.52h-358.63Zm-35.45.07h-225.37q4.16,20.81,23.63,20.81c58.9,0,117.8,0,176.7,0q19.73,0,25.53-18.96c.09-.28-.16-.67-.48-1.84Z"/>
  <path class="cls-1" d="m850.19,660.04c15.03,0,30.08-.44,45.08.26,4.66.22,10.15,2.5,13.57,5.67,11.03,10.26,25.3,19.69,30.68,32.63,5.38,12.93,1.7,29.7,1.73,44.79.08,44.97.03,89.94.03,135.67h-320.03v-79.54c-16.23,16.25-32.81,32.84-48.1,48.15h20.17v31.59h-108.65v-30.65h54.02v-34.01h-53.82v-31.39h85.64c.37,4.26.73,8.3.92,10.41,10.24-10.22,21.18-21.15,31.4-31.36-8.93-9.09-19.64-19.99-30.85-31.41-.52,4.29-1.05,8.57-1.61,13.14h-85.69v-30.77h54.43v-59.05c26.4,26.56,51.9,52.23,77.4,77.89,1.39-.71,2.77-1.41,4.16-2.12,0-7.71-.72-15.51.25-23.09.65-5.08,2.54-10.92,5.89-14.56,10.19-11.07,19.69-25.16,32.61-30.63,12.54-5.32,28.96-1.45,43.68-1.61,3.02-.03,6.03,0,10.95,0-3.12-3.7-4.49-6.2-6.59-7.66-14.81-10.31-18.59-24.4-17.1-41.89,1.6-18.86-1.08-38.19,1.55-56.83,6.64-47.17,46.47-79.65,92.47-77.55,47.21,2.16,83.26,37.16,86.43,85.53,1.49,22.76.64,45.69.32,68.53-.05,3.33-2.37,7.29-4.83,9.78-5.84,5.9-12.4,11.1-18.67,16.58.86,1.17,1.72,2.35,2.58,3.52Zm-197.94,187.35h257.43c0-44.34.1-87.91-.09-131.48-.04-8.62-17.67-24.19-26.75-24.19-68.07-.04-136.13-.05-204.2,0-10.58,0-26.3,15.97-26.35,26.66-.1,21.8-.03,43.6-.03,65.4,0,21.03,0,42.06,0,63.6Zm187.37-252.72c0-12.6.44-21.4-.08-30.14-1.9-31.67-24.91-55.05-55.48-56.79-30.05-1.7-57.31,19.1-60.77,49.39-2.41,21.14-4.44,43.67.52,63.81,3.11,12.64,19.48,22.01,29.91,32.84,1.22,1.26,2.39,2.61,3.78,3.64,1.36,1.01,3,2.41,4.49,2.36,19.84-.59,39.54,4.5,56.46-15.01,14.31-16.5,27.15-30.69,21.17-50.11Z"/>
  <path class="cls-1" d="m279.16,276.57c.83-144.44,117.67-260.52,261.47-259.78,142.68.73,258.69,117.85,258.34,260.81-.35,144.67-117.56,261.14-262.01,260.35-142.35-.78-258.63-118.67-257.81-261.38Zm488.23.84c.13-126.05-102.23-228.84-228.02-228.98-125.88-.14-228.08,101.94-228.63,228.34-.55,125.87,101.91,229.25,227.47,229.53,126.41.28,229.05-102.23,229.18-228.89Z"/>
  <path class="cls-1" d="m366.25,660.04c15.31,0,30.64-.39,45.92.25,4.34.18,9.49,2.32,12.67,5.29,11.01,10.29,25.33,19.65,30.75,32.58,5.41,12.92,1.83,29.7,1.86,44.78.1,41.49.04,82.98.03,124.46,0,3.78,0,7.55,0,11.86H137.3c-.15-3.42-.41-6.48-.41-9.54-.02-54.14-.19-108.29.26-162.43.04-5.2,2.85-11.42,6.39-15.33,9.86-10.91,19.14-24.8,31.75-30.09,12.59-5.28,28.93-1.59,43.63-1.82,3.07-.05,6.13,0,12.26,0-7.25-7.47-13.21-12.64-17.89-18.78-3.11-4.09-6.16-9.57-6.19-14.45-.19-24.58-1.14-49.36,1.46-73.71,4.88-45.65,46.66-79.27,92.77-76.96,46.62,2.34,84.21,39.16,85.88,85.01.83,22.82.41,45.7.09,68.55-.05,3.38-1.96,7.38-4.27,9.96-5.6,6.22-11.94,11.76-17.98,17.58.4.94.8,1.87,1.2,2.81Zm59.63,187.67c0-44.72.12-88.31-.09-131.89-.04-8.98-17.25-24.09-26.7-24.1-67.72-.04-135.43-.04-203.15,0-11.72,0-27.45,15.99-27.46,27.82-.04,39.73-.03,79.47.01,119.2,0,3.01.41,6.01.62,8.97h256.77Zm-70.03-253.5c0-12.82.26-21.6-.05-30.37-.99-27.6-22.14-51.55-48.71-55.43-29.1-4.25-56.05,11.06-64.73,38.29-3.12,9.78-3.46,20.66-3.79,31.07-.48,14.69-3.88,31.22,1.55,43.62,5.79,13.22,20.36,22.6,31.21,33.54,1.91,1.93,4.43,4.81,6.56,4.72,19.38-.82,38.95,5.21,55.87-13.83,14.97-16.84,28.53-31.48,22.09-51.61Z"/>
  <path class="cls-1" d="m107.11,383.7v525.8h-30.44V352.86h189.89v30.85H107.11Z"/>
  <path class="cls-1" d="m1001.63,909.7h-30.38V384.33h-159.82v-31.19h190.2v556.56Z"/>
  <path class="cls-1" d="m910.07,472.29h-147.12v-30.66h177.76v209.51h-30.64v-178.84Z"/>
  <path class="cls-1" d="m137.61,441.41h177.57v31.13c-24.48,0-48.87,0-73.26,0s-48.23,0-73.05,0v178.59h-31.25v-209.73Z"/>
  <path class="cls-1" d="m405.9,559.77c4.09-8.74,8.2-17.51,12.88-27.49,79.76,35.42,159.51,35.97,240.44-.03,4.35,9.1,8.65,18.1,12.95,27.07-71.85,39.96-184.76,43.03-266.26.45Z"/>
  <path class="cls-1" d="m614.62,894.73v30.32h-151.1v-30.32h151.1Z"/>
  <path class="cls-1" d="m836.89,1012.07v-30.21h175.14v30.21h-175.14Z"/>
  <path class="cls-1" d="m731.64,981.66h30.43v30.38h-30.43v-30.38Z"/>
  <path class="cls-1" d="m814.38,1012.19h-30.15v-30.34h30.15v30.34Z"/>
  <path class="cls-1" d="m873.48,707.71v30.49h-79.59v-30.49h79.59Z"/>
  <path class="cls-1" d="m718.33,738.2h-29.94v-30.27h29.94v30.27Z"/>
  <path class="cls-1" d="m740.94,738.1v-30.32h30.22v30.32h-30.22Z"/>
  <path class="cls-1" d="m538.91,485.53c-114.43-.04-207.69-93.27-207.9-207.81-.21-114.96,93.31-208.64,208.21-208.55,114.89.08,208.42,94.03,207.93,208.86-.5,114.67-93.7,207.54-208.24,207.51Zm1.19-384.71c-97.52-.51-177.18,78.49-177.51,176.02-.32,97.02,78.59,176.66,175.44,177.04,97.66.38,177.18-78.46,177.53-176.02.34-97.01-78.47-176.53-175.46-177.04Z"/>
  <path class="cls-1" d="m389.46,738.14h-79.25v-30.39h79.25v30.39Z"/>
  <path class="cls-1" d="m204.91,707.45h30.01v30.72h-30.01v-30.72Z"/>
  <path class="cls-1" d="m288.03,708v29.97h-30.66v-29.97h30.66Z"/>
  <path class="cls-1" d="m606.25,277.4c12.28,6.16,10.93,15.99,10.78,25.48-.11,7.03-.94,14.2.15,21.06,3.13,19.63-3.4,34.78-19.38,46.07-4.09,2.89-8.47,5.36-14.07,8.88v19.97h-31.44v-22.18h-23.53v22.3h-31.24v-22.65h-35.87v-31.81h19.84v-133.91h-19.66v-31.86h34.98v-22.78h31.71v22.2h22.97c.37-7.23.73-14.37,1.13-22.26h30.46v20.86c15.18,3.43,21.84,16.36,31.72,25.32,1.84,1.67,2.07,5.73,2.12,8.7.21,13.7-.07,27.41.15,41.12.15,9.56,1.15,19.22-10.81,25.48Zm-91.91-15.84c20.35,0,39.59-.03,58.83.01,7.63.02,11.85-3.91,12.14-11.3.38-9.81,1-19.78-.37-29.41-.55-3.84-6.01-9.78-9.46-9.94-20.17-.95-40.4-.46-61.13-.46v51.1Zm.03,82.63c20.76,0,40.99.48,61.15-.46,3.44-.16,8.91-6.12,9.42-9.94,1.33-9.99,1.35-20.4-.03-30.38-.52-3.76-6.2-9.54-9.74-9.7-20.13-.94-40.34-.45-60.8-.45v50.95Z"/>
  <path class="cls-1" d="m428.18,168.48c7.55,7.53,14.45,14.41,22.17,22.1-25.46,27.05-37.31,60.47-34.59,100.09-10.16,1.06-20.04,2.1-31.13,3.26-3.82-49.47,10.56-90.79,43.55-125.44Z"/>
  <path class="cls-1" d="m694.39,272.4c-.08,45.29-14.4,82.74-45.23,114.64-7.25-7.77-14.07-15.08-19.99-21.42,8.14-13.89,18.18-27.27,24.16-42.27,6-15.04,7.96-31.7,12.15-49.63,7.79-.35,17.67-.81,28.92-1.32Z"/>
  <path class="cls-1" d="m692.54,249.11c-11.64,2.11-21.1,3.83-31.07,5.64-2.79-8.83-5.4-17.07-8.39-26.53,8.88-3.92,17.96-7.93,28.83-12.74,3.49,11.04,6.76,21.39,10.62,33.62Z"/>
  <path class="cls-1" d="m650.87,168.86c6.03,7.58,12.72,15.99,20.25,25.46-9.37,5.99-17.73,11.34-26.54,16.96-5.8-7.21-11.23-13.96-17.1-21.25,7.28-6.59,14.66-13.27,23.38-21.17Z"/>
</svg>