<?xml version="1.0" encoding="UTF-8"?>
<svg id="Layer_1" data-name="Layer 1" xmlns="http://www.w3.org/2000/svg" viewBox="0 0 1080 1080">
  <defs>
    <style>
      .cls-1 {
        stroke-width: 0px;
      }
    </style>
  </defs>
  <path class="cls-1" d="m875.55,458.01c-282.44,0-564.91,0-847.34,0h-.21v591.94h1021.27V458.01h-173.72Zm134.6,551.93H68.17V497.89h941.98v512.05Z"/>
  <path class="cls-1" d="m875.55,458.01c-282.44,0-564.91,0-847.34,0h-.21v591.94h1021.27V458.01h-173.72Zm134.6,551.93H68.17V497.89h941.98v512.05Z"/>
  <path class="cls-1" d="m988.57,324.18c-1.11-48.58-20.45-86.37-59.12-115.53-1.89-1.43-3.73-2.89-5.5-4.3-.81-.64-1.62-1.28-2.45-1.93l-8.3-6.53,8-11.06c1.04-1.43,1.93-2.66,2.82-3.9,15.66-22.01,21.64-48.43,16.84-74.41-4.63-25.09-18.95-46.74-40.31-60.96-8.36-5.56-18.66-9.01-29.57-12.67-4.58-1.53-9.29-3.12-13.94-4.89h-22.75c-.13.04-.26.08-.39.13-1.75.57-3.73,1.22-6.01,1.65-25.03,4.68-47.63,19.61-62,40.94-14.11,20.95-19.18,45.79-14.27,69.96,2.26,11.12,7.13,22.24,12.29,34.02,2.46,5.61,5,11.4,7.38,17.47l3.08,7.85-6.78,5.01c-.93.69-1.86,1.36-2.8,2.04l-.92.67c-33.58,24.42-53.05,55.57-57.86,92.59-2.42,18.58-2.29,37.32-2.15,57.16.03,5.37.07,10.85.05,16.36h284.76c.02-2.88.03-5.75.05-8.6.08-14.16.16-27.53-.15-41.07Zm-142.56-256.83h.23c31.33.13,56.74,25.84,56.65,57.31-.09,31.74-25.08,56.61-56.9,56.61h-.2c-15.25-.06-29.54-6.01-40.26-16.76-10.72-10.76-16.6-25.07-16.54-40.3.12-31.35,25.7-56.86,57.02-56.86Zm-103.06,267.17l.24-11.24c.77-35.13,15.06-62.86,42.49-82.4,19.03-13.57,39.13-20.44,59.74-20.44,16.88,0,33.92,4.65,50.64,13.83,33.29,18.28,51.14,48.13,53.06,88.73l.55,11.52h-206.72Z"/>
  <path class="cls-1" d="m988.57,324.18c-1.11-48.58-20.45-86.37-59.12-115.53-1.89-1.43-3.73-2.89-5.5-4.3-.81-.64-1.62-1.28-2.45-1.93l-8.3-6.53,8-11.06c1.04-1.43,1.93-2.66,2.82-3.9,15.66-22.01,21.64-48.43,16.84-74.41-4.63-25.09-18.95-46.74-40.31-60.96-8.36-5.56-18.66-9.01-29.57-12.67-4.58-1.53-9.29-3.12-13.94-4.89h-22.75c-.13.04-.26.08-.39.13-1.75.57-3.73,1.22-6.01,1.65-25.03,4.68-47.63,19.61-62,40.94-14.11,20.95-19.18,45.79-14.27,69.96,2.26,11.12,7.13,22.24,12.29,34.02,2.46,5.61,5,11.4,7.38,17.47l3.08,7.85-6.78,5.01c-.93.69-1.86,1.36-2.8,2.04l-.92.67c-33.58,24.42-53.05,55.57-57.86,92.59-2.42,18.58-2.29,37.32-2.15,57.16.03,5.37.07,10.85.05,16.36h284.76c.02-2.88.03-5.75.05-8.6.08-14.16.16-27.53-.15-41.07Zm-142.56-256.83h.23c31.33.13,56.74,25.84,56.65,57.31-.09,31.74-25.08,56.61-56.9,56.61h-.2c-15.25-.06-29.54-6.01-40.26-16.76-10.72-10.76-16.6-25.07-16.54-40.3.12-31.35,25.7-56.86,57.02-56.86Zm-103.06,267.17l.24-11.24c.77-35.13,15.06-62.86,42.49-82.4,19.03-13.57,39.13-20.44,59.74-20.44,16.88,0,33.92,4.65,50.64,13.83,33.29,18.28,51.14,48.13,53.06,88.73l.55,11.52h-206.72Z"/>
  <path class="cls-1" d="m374.05,316.57c-2.72-45.34-23.19-82.18-60.84-109.47-1.75-1.27-3.23-2.61-4.54-3.8-.49-.45-.98-.9-1.5-1.35l-7.5-6.51,5.72-8.12c.81-1.15,1.59-2.25,2.35-3.32,1.5-2.1,2.92-4.08,4.22-6.03,16.94-25.38,20.91-56.45,10.89-85.24-10.02-28.75-32.39-50.6-61.38-59.95-4.05-1.31-8.22-2.38-12.64-3.51-1.64-.42-3.27-.84-4.91-1.27h-25.19s-.09.03-.13.05c-1.72.64-3.67,1.36-5.95,1.85-46.09,9.9-77.73,49.81-76.93,97.05.36,21.41,7.62,40.88,22.21,59.53l3.86,4.93-2.25,5.76v.06c-.31.95-1.2,3.83-4.06,6.07-2.42,1.9-4.92,3.81-7.42,5.68-32.88,24.66-51.82,55.76-56.31,92.43-2.25,18.42-2.11,37.81-1.97,56.55.04,5.22.08,10.55.06,15.89h284.49c.04-3.77.1-7.5.16-11.16.24-15.95.47-31.02-.44-46.12ZM231.91,67.35h.2c31.44.11,56.94,25.79,56.85,57.25-.08,31.25-25.7,56.66-57.18,56.66-15.33-.02-29.63-5.92-40.27-16.61-10.64-10.68-16.48-25.02-16.45-40.36.07-31.4,25.57-56.94,56.85-56.94Zm-103.16,267.26l.28-11.28c.9-36.28,15.91-64.52,44.61-83.94,18.61-12.59,38.1-18.97,57.92-18.97,17.66,0,35.35,5.09,52.6,15.13,32.14,18.7,49.21,48.19,50.74,87.63l.44,11.43h-206.59Z"/>
  <path class="cls-1" d="m374.05,316.57c-2.72-45.34-23.19-82.18-60.84-109.47-1.75-1.27-3.23-2.61-4.54-3.8-.49-.45-.98-.9-1.5-1.35l-7.5-6.51,5.72-8.12c.81-1.15,1.59-2.25,2.35-3.32,1.5-2.1,2.92-4.08,4.22-6.03,16.94-25.38,20.91-56.45,10.89-85.24-10.02-28.75-32.39-50.6-61.38-59.95-4.05-1.31-8.22-2.38-12.64-3.51-1.64-.42-3.27-.84-4.91-1.27h-25.19s-.09.03-.13.05c-1.72.64-3.67,1.36-5.95,1.85-46.09,9.9-77.73,49.81-76.93,97.05.36,21.41,7.62,40.88,22.21,59.53l3.86,4.93-2.25,5.76v.06c-.31.95-1.2,3.83-4.06,6.07-2.42,1.9-4.92,3.81-7.42,5.68-32.88,24.66-51.82,55.76-56.31,92.43-2.25,18.42-2.11,37.81-1.97,56.55.04,5.22.08,10.55.06,15.89h284.49c.04-3.77.1-7.5.16-11.16.24-15.95.47-31.02-.44-46.12ZM231.91,67.35h.2c31.44.11,56.94,25.79,56.85,57.25-.08,31.25-25.7,56.66-57.18,56.66-15.33-.02-29.63-5.92-40.27-16.61-10.64-10.68-16.48-25.02-16.45-40.36.07-31.4,25.57-56.94,56.85-56.94Zm-103.16,267.26l.28-11.28c.9-36.28,15.91-64.52,44.61-83.94,18.61-12.59,38.1-18.97,57.92-18.97,17.66,0,35.35,5.09,52.6,15.13,32.14,18.7,49.21,48.19,50.74,87.63l.44,11.43h-206.59Z"/>
  <rect class="cls-1" x="458.52" y="212.68" width="160.89" height="38.08"/>
  <rect class="cls-1" x="458.52" y="212.68" width="160.89" height="38.08"/>
  <rect class="cls-1" x="458.75" y="335.75" width="160.65" height="38.11"/>
  <rect class="cls-1" x="458.75" y="335.75" width="160.65" height="38.11"/>
  <path class="cls-1" d="m920.51,652.2c-3.36,0-6.68-.01-10-.03-33.44-.24-54.45-21.17-54.83-54.63-.07-5.51-.06-11.11-.04-16.57H222.33c0,5.65.02,11.04-.05,16.49-.41,33.5-21.39,54.46-54.75,54.71-3.39.03-6.79.03-10.18.03h-6.01v203.35c2.27-.01,4.53-.02,6.77-.02,4,0,7.31.03,10.43.1,32.73.73,53.33,21.63,53.74,54.57.07,5.43.06,10.91.05,16.27h633.31c-.01-5.18-.01-10.14.03-15.15.26-34.49,21.14-55.32,55.84-55.72,3.28-.04,6.56-.05,9.83-.05,1.75,0,3.51,0,5.25.01v-203.36h-6.08Zm-644.07,224.58c-3.13-.02-8.25-1.49-9.08-3.61-12.32-31.32-34.46-52.29-66.28-63.77,0-35.6-.06-70.89.16-106.17,0-2.14,1.78-5.55,3.55-6.22,31.51-11.99,52.23-34.38,63.62-65.65h131.42c-60.54,82.24-60.45,163.27.37,245.58h-17.84c-35.31,0-70.62.09-105.92-.16Zm262.83,11.08h-.88c-73.37-.49-133.05-60.58-133.03-133.96.02-73.84,59.99-133.91,133.68-133.91h.49c73.38.27,133.08,60.34,133.07,133.92-.02,73.86-59.83,133.95-133.33,133.95Zm348.6-133.24c0,15.75-.01,32.03-.14,48.06-.04,5.67-2.91,15.21-10.64,18.24-28.12,11.03-46.83,30.43-57.2,59.32l-2.62,7.28h-161.01l12.91-17.52c57.63-78.24,57.57-154.29-.17-232.48l-12.95-17.53h51.79c8.03,0,16.05.01,24.08.02,8.12,0,16.24.02,24.36.02,18.13,0,32.05-.05,45.15-.18h.37c10.38,0,17.05,4.56,20.97,14.33,9.7,24.11,26.98,41.3,51.35,51.08,9.44,3.79,13.98,10.55,13.9,20.68-.13,16.21-.14,32.72-.15,48.68Z"/>
  <path class="cls-1" d="m920.51,652.2c-3.36,0-6.68-.01-10-.03-33.44-.24-54.45-21.17-54.83-54.63-.07-5.51-.06-11.11-.04-16.57H222.33c0,5.65.02,11.04-.05,16.49-.41,33.5-21.39,54.46-54.75,54.71-3.39.03-6.79.03-10.18.03h-6.01v203.35c2.27-.01,4.53-.02,6.77-.02,4,0,7.31.03,10.43.1,32.73.73,53.33,21.63,53.74,54.57.07,5.43.06,10.91.05,16.27h633.31c-.01-5.18-.01-10.14.03-15.15.26-34.49,21.14-55.32,55.84-55.72,3.28-.04,6.56-.05,9.83-.05,1.75,0,3.51,0,5.25.01v-203.36h-6.08Zm-538.15,235.74s-37.23.02-44.56.02c-18.14,0-39.62-.02-61.44-.18-5.23-.03-15.98-2.3-19.24-10.59-11.07-28.14-30.62-46.93-59.77-57.44l-7.27-2.62v-27.28c-.01-28.43-.02-57.84.16-86.69.04-6.1,4.03-13.91,10.64-16.43,27.86-10.61,46.56-29.94,57.19-59.13l2.64-7.24h160.88l-12.9,17.52c-57.58,78.22-57.46,154.28.35,232.53l12.96,17.53h-39.64Zm156.91-.08h-.88c-73.37-.49-133.05-60.58-133.03-133.96.02-73.84,59.99-133.91,133.68-133.91h.49c73.38.27,133.08,60.34,133.07,133.92-.02,73.86-59.83,133.95-133.33,133.95Zm348.6-133.24c0,15.75-.01,32.03-.14,48.06-.04,5.67-2.91,15.21-10.64,18.24-28.12,11.03-46.83,30.43-57.2,59.32l-2.62,7.28h-161.01l12.91-17.52c57.63-78.24,57.57-154.29-.17-232.48l-12.95-17.53h51.79c8.03,0,16.05.01,24.08.02,8.12,0,16.24.02,24.36.02,18.13,0,32.05-.05,45.15-.18h.37c10.38,0,17.05,4.56,20.97,14.33,9.7,24.11,26.98,41.3,51.35,51.08,9.44,3.79,13.98,10.55,13.9,20.68-.13,16.21-.14,32.72-.15,48.68Z"/>
  <rect class="cls-1" x="508.81" y="723.66" width="60.35" height="60.08"/>
  <rect class="cls-1" x="519.81" y="734.66" width="38.34" height="38.08"/>
</svg>