<?xml version="1.0" encoding="UTF-8"?>
<svg id="Layer_1" data-name="Layer 1" xmlns="http://www.w3.org/2000/svg" viewBox="0 0 1080 1080">
  <defs>
    <style>
      .cls-1 {
        stroke-width: 0px;
      }
    </style>
  </defs>
  <path class="cls-1" d="m0,63.28C7.22,42.54,19.49,26.91,42.22,22.35c5.1-1.02,10.44-1.2,15.67-1.21,71.93-.07,143.86-.09,215.78-.03,36.39.03,57.46,21.08,57.66,57.58.12,21.73.02,43.47.02,66.15,4.66.21,8.36.52,12.07.52,51.93.03,103.86-.02,155.79.04,31,.04,49.34,18.11,51.03,49.29.19,3.58,3.44,7.37,6.06,10.36,3.65,4.16,9.55,6.94,11.8,11.62,3.78,7.86,9.29,8.75,16.78,8.63,21.75-.35,43.51-.29,65.26-.08,32.91.32,54.89,22.14,54.92,54.96.11,142.03.11,284.06,0,426.08-.02,33.36-22.05,55.29-55.58,55.43-47.02.19-94.03.05-141.05.05-3.83,0-7.66,0-11.61,0,0,22.59-1.38,44.63.51,66.4,1.15,13.22,14.06,20.13,30.46,20.17,48.07.1,96.14.04,144.21.04,10.18,0,20.36-.26,30.52.07,11.91.38,23.97,1.71,29.2-12.93.32-.89,1.32-1.84,2.22-2.18,13.83-5.19,12.76-16.58,12.72-28.35-.27-74.53-.16-149.06-.13-223.59.02-39.34,20.52-59.95,59.55-59.96,70.88-.02,141.75-.02,212.63,0,38.13.01,59.17,21.15,59.17,59.42.01,139.57.01,279.13,0,418.7,0,38.3-20.95,59.35-59.13,59.37-71.23.03-142.45.05-213.68,0-36.94-.03-57.95-21.16-58.01-58.22-.05-33.05-.11-66.09.08-99.14.03-5.4-.93-8.98-6.39-11.6-4.22-2.03-8.88-5.54-10.77-9.59-4.18-8.96-10.76-9.89-19.4-9.85-60,.29-120,.17-180,.15-37.2-.02-57.4-20.1-57.5-57.15-.05-16.79,0-33.59,0-51.74-15.01,0-28.92.06-42.82-.01-35.53-.19-57.18-21.65-57.19-57.09-.07-140.97-.07-281.95,0-422.92.02-35.43,21.72-57.15,57.09-57.4,21.75-.15,43.51-.19,65.26.07,6.05.07,10.49-.66,13.58-6.97,2.04-4.17,6.14-7.68,10.02-10.52,9.69-7.08,12.49-16.34,4.56-25.95-4.65-5.63-12.94-11.51-19.68-11.61-56.47-.89-112.96-.46-169.45-.4-.62,0-1.25.49-3.1,1.26,0,3.63,0,7.76,0,11.89,0,105.11.01,210.23,0,315.34,0,40.62-20.26,60.93-60.75,61.01-30.17.06-60.34.11-90.52.19-.66,0-1.31.35-2.85.79-.19,2.73-.57,5.77-.58,8.81-.03,79.8.05,159.61-.16,239.41-.02,6.34,1.26,10.39,7.46,13.14,3.63,1.61,7.76,4.82,9.14,8.31,4.28,10.8,12.46,10.77,21.92,10.58,22.45-.46,44.91-.23,67.36-.13,28.69.14,48.35,19.15,48.84,48.02.47,27.41.44,54.85,0,82.26-.45,28.81-19.77,48.23-48.69,48.35-77.89.31-155.79.22-233.68.04-25.44-.06-40.46-14.55-48.87-37.36v-103.36c9.74-28.25,29.96-39.35,59.11-37.78,19.56,1.05,39.23-.09,58.84.33,8.82.19,16.34.1,20.15-10.09,1.31-3.51,5.36-6.92,8.97-8.46,6.92-2.96,7.37-7.96,7.36-14.3-.13-78.98-.08-157.96-.11-236.94,0-3.42-.3-6.84-.5-11.35h-53.89c-13.31,0-26.64-.41-39.94.08-30.8,1.14-50.07-13.75-60-42.19V63.28Zm495.76,607.46h186.35c.19-2.75.46-4.79.46-6.83.02-127.95.08-255.89-.05-383.84-.02-20.73-11.9-32.37-32.96-32.67-22.8-.32-45.61.05-68.41-.18-5.41-.06-8.51,1.24-11.49,6.47-14.13,24.79-46.6,24.94-60.7.26-3.22-5.64-6.79-6.78-12.47-6.72-21.4.22-42.8.04-64.2.1-25.48.08-36.57,11.18-36.57,36.62-.02,125.13,0,250.27,0,375.4v11.29h76.75v-57.72c-2.19-.33-3.84-.67-5.51-.81-16.76-1.35-23.05-7.93-23.26-24.65-.12-9.49-.2-18.99.04-28.47.36-13.82,7.61-22,21.12-22.59,14.36-.63,28.78-.6,43.13-.03,13.52.55,20.96,8.49,21.58,22.35.45,9.82.35,19.69.08,29.52-.45,16.14-7.98,23.35-24.3,23.86-3.05.1-6.08.43-9.61.69v57.94Zm559.09,297.21c.18-3.32.4-5.42.4-7.51.02-127.54.06-255.09-.03-382.63-.02-22.75-11.5-33.91-34.64-33.93-72.24-.09-144.48-.09-216.72,0-23.92.03-35.1,11.5-35.11,35.83-.05,78.7.05,157.41-.14,236.11-.02,6.58,1.56,10.37,7.63,14.12,20.21,12.46,22.8,41.76,3.72,55.33-10.48,7.45-11.78,15.23-11.38,26.08.59,15.79.12,31.62.18,47.43.01,3.03.39,6.06.61,9.18h285.48ZM309.16,144.94c0-22.02.02-42.74,0-63.45-.03-27.06-10.56-37.69-37.51-37.71-70.5-.04-141-.03-211.51,0-27.21.01-37.5,10.29-37.5,37.46-.02,125.11,0,250.23,0,375.34,0,3.69,0,7.37,0,11.15h131.03v-68.53c-4.44,0-8.21,0-11.98,0-19.99-.02-39.99.26-59.98-.16-15.83-.33-27.2-10.23-27.64-25.96-.84-29.48-.83-59.03.07-88.51.46-15.27,11.69-25.32,26.98-25.41,56.47-.31,112.94-.33,169.41.02,15.92.1,26.99,11.55,27.22,27.61.41,28.11.4,56.23,0,84.34-.23,16.52-11.43,27.53-28.09,27.89-20.33.44-40.68.15-61.03.17-3.71,0-7.42,0-11,0v68.53h130.88V168.05h-30.62c0,10.15.11,19.21-.02,28.26-.28,18.5-10.54,30.33-29,30.51-55.41.54-110.84.53-166.25.01-18.06-.17-28.61-11.36-28.96-29.46-.52-27.05-.51-54.13-.03-81.18.34-19.21,11.55-29.72,30.66-29.75,54.37-.09,108.73-.11,163.1,0,19.42.04,30.26,11.23,30.49,30.98.1,9.03.02,18.07.02,27.51h31.27Zm-143.91,850.68c38.59,0,77.18.08,115.77-.03,18.16-.05,27.93-9.73,28.07-28.03.21-26.01.24-52.03-.01-78.04-.17-17.84-9.69-27.15-27.53-27.27-24.91-.16-49.82-.33-74.72.25-3.8.09-8.82,3.29-11.03,6.57-15.04,22.24-45.43,22.56-59.63-.32-3.41-5.5-6.97-6.67-12.62-6.63-24.21.19-48.41-.01-72.62.11-19.54.1-28.15,8.74-28.26,28.44-.14,25.31-.13,50.62,0,75.93.1,19.97,9.09,28.96,28.92,29,37.89.07,75.78.02,113.67.02Zm.5-618.57c0-.06,0-.12,0-.18,25.92,0,51.85-.21,77.76.12,8.28.11,12.07-2.18,11.9-11.27-.46-24.56-.4-49.14-.03-73.7.13-8.27-2.92-11.09-11.03-11.06-52.55.22-105.09.2-157.64.02-8.23-.03-11.04,3.23-10.93,11.34.34,24.21.45,48.44-.04,72.65-.19,9.28,3.21,12.35,12.24,12.22,25.92-.39,51.84-.14,77.77-.14Zm.47-268.06c-26.27,0-52.54.24-78.8-.14-8.52-.12-11.85,2.57-11.67,11.46.47,24.2.42,48.43.02,72.63-.14,8.63,2.83,11.77,11.56,11.72,52.18-.27,104.37-.29,156.55.01,8.76.05,11.66-2.99,11.51-11.63-.41-24.21-.43-48.43.01-72.63.16-8.67-2.67-11.73-11.44-11.59-25.91.44-51.83.16-77.75.16Zm603.57,882.69c-4.15,30.38,7.65,44.52,36.52,44.53,70.76.04,141.52.04,212.28,0,28.5-.02,41.14-15.9,35.17-44.53h-283.97Zm-87.7-296.61h-186.54v43.15c1.35.51,2,.96,2.64.96,51.14.09,102.28.49,153.41,0,18.82-.18,30.12-13.03,30.47-31.88.07-3.84.01-7.68.01-12.22Zm-504.82-158.91c32.18,0,63.33-.96,94.4.27,31.04,1.22,41.58-21.83,36.27-44.28h-130.67v44.01Zm-153.58-44.63c-5.58,29.02,9.97,46.46,37.5,44.55,17.43-1.21,35-.28,52.51-.29,13.21-.01,26.42,0,40,0v-44.25H23.71Zm372.04,202.87c0,5.19-.09,9.35.02,13.51.35,14.5,8.01,27.99,20.65,29.33,18.42,1.95,37.21.5,55.86.5v-43.34h-76.52Zm70.09-105.44h40.81v-29.67h-40.08c-.31,1.97-.69,3.3-.7,4.64-.06,7.69-.03,15.37-.03,25.03Zm292.41,282.51c7.63-.89,12.11-5.43,11.8-13.1-.3-7.62-5.12-12.51-12.9-12.18-7.65.32-12.24,5.11-11.91,13.04.32,7.83,4.91,11.93,13,12.24Zm-592.32-8.15c7.74-.65,12.47-5.07,12.31-12.77-.16-7.75-5.37-12.46-13.02-12.2-7.06.24-11.74,4.58-11.78,12.2-.03,8.06,4.54,12.04,12.49,12.77ZM551.67,236.16c-1.09-6.92-4.83-12.16-12.61-12.18-7.7-.01-12.43,4.78-12.4,12.51.03,7.21,4.53,11.82,11.73,12.14,7.81.35,11.95-4.42,13.29-12.48Z"/>
  <path class="cls-1" d="m591.04,611.7c-7.01,0-14.02.2-21.01-.04-12.52-.42-20.69-7.52-21.47-19.95-.75-11.88-.73-23.88,0-35.76.73-11.85,8.74-19.53,20.47-19.91,15.04-.48,30.13-.54,45.17.05,11.79.47,19.36,8.51,19.81,20.4.44,11.56.45,23.17,0,34.73-.48,12.29-8.5,19.91-20.89,20.41-7.34.3-14.71.05-22.06.06Zm20.27-22.31v-29.97h-39.92v29.97h39.92Z"/>
  <path class="cls-1" d="m538.9,303.75c26.28,0,52.57.07,78.85-.04,8.31-.03,16.28.58,16.18,11.49-.1,10.11-7.65,11.23-15.58,11.23-52.92-.01-105.83.03-158.75-.04-11.63-.02-16.95-4.64-15.63-13.21,1.25-8.07,7.06-9.47,13.97-9.46,26.98.07,53.97.03,80.95.03Z"/>
  <path class="cls-1" d="m540.15,358.6c26.28,0,52.57.06,78.85-.04,8.25-.03,15.17,1.7,14.94,11.74-.22,9.41-7.05,10.98-14.74,10.98-53.62-.02-107.23-.02-160.85,0-7.79,0-14.37-1.91-14.42-11.29-.06-9.34,6.28-11.43,14.22-11.4,27.33.07,54.67.03,82,.03Z"/>
  <path class="cls-1" d="m540.06,413.44c26.28,0,52.57.08,78.85-.05,8.23-.04,15.2,1.53,15.04,11.6-.15,9.39-6.96,11.11-14.65,11.11-53.62,0-107.23,0-160.85,0-7.72,0-14.45-1.84-14.52-11.24-.07-10.12,7-11.5,15.17-11.47,26.98.12,53.97.04,80.95.04Z"/>
  <path class="cls-1" d="m484.57,468.3c9.45,0,18.9-.06,28.34.03,7.01.06,11.31,3.41,11.6,10.71.29,7.35-3.99,11.46-10.78,11.6-19.58.39-39.19.39-58.77.05-6.74-.11-11.25-3.95-11.08-11.34.18-7.91,4.91-11.07,12.34-11.06,9.45.02,18.9,0,28.34,0Z"/>
  <path class="cls-1" d="m911.71,929.7c-25.95,0-51.9.1-77.85-.03-23.49-.12-33.83-10.69-33.86-34.31-.03-24.59-.06-49.19.01-73.78.06-21.66,10.8-32.62,32.1-32.65,53.3-.06,106.6-.06,159.9,0,21.12.02,32.05,10.41,32.31,31.43.33,26,.33,52,0,78-.27,20.31-11.11,31.02-31.61,31.26-27,.32-54,.08-81,.08Zm-.09-22.67c26.27,0,52.55-.27,78.81.15,8.61.14,11.85-2.62,11.69-11.44-.43-24.21-.43-48.44,0-72.65.15-8.68-2.79-11.69-11.51-11.65-52.19.29-104.39.29-156.58,0-8.63-.05-11.72,2.7-11.56,11.48.45,24.21.4,48.44.02,72.65-.13,8.47,2.34,11.83,11.36,11.65,25.91-.52,51.84-.18,77.76-.18Z"/>
  <path class="cls-1" d="m800.01,682.76c0-13.34-.15-26.68.04-40.02.25-17.93,10.51-29.32,28.29-30.05,17.49-.72,35.05-.7,52.54-.02,17.84.69,28.38,12.02,28.53,29.83.22,27.03.22,54.07,0,81.1-.14,18.5-10.96,29.54-29.32,29.89-16.81.32-33.64.3-50.46,0-18.45-.33-29.3-11.29-29.59-29.65-.21-13.69-.04-27.38-.04-41.08Zm22.63.68c0,12.65.23,25.32-.09,37.96-.18,7.06,2.28,10.36,9.67,10.24,15.08-.26,30.17-.2,45.26-.02,6.62.08,9.48-2.55,9.43-9.38-.19-25.66-.24-51.32.03-76.98.08-7.54-3.32-9.79-10.21-9.68-14.73.22-29.47.24-44.2,0-7.08-.11-10.19,2.54-9.98,9.91.36,12.64.1,25.31.1,37.96Z"/>
  <path class="cls-1" d="m165.42,967.67c-27.34,0-54.69.04-82.03-.04-3.47,0-7.72.55-10.22-1.18-3.31-2.29-7.47-6.74-7.21-9.94.31-3.87,4.64-7.59,7.69-10.95.86-.95,3.35-.54,5.09-.54,58.19-.02,116.39-.09,174.58.07,9.78.03,15.9,7.47,11.53,14.8-2.38,4-9.3,7.32-14.25,7.44-28.38.69-56.78.34-85.18.34Z"/>
  <path class="cls-1" d="m164.9,911.95c-26.61,0-53.22,0-79.82,0-2.8,0-5.61.04-8.4-.12-7.07-.41-12.18-4.57-10.73-11.21.9-4.14,6.45-7.68,10.59-10.5,1.93-1.32,5.45-.34,8.25-.34,53.92,0,107.83,0,161.75,0,2.1,0,4.2.05,6.3.01,7.82-.13,13.13,2.88,12.96,11.46-.16,8.03-5.38,10.72-12.67,10.7-9.45-.03-18.91.01-28.36.01-19.96,0-39.91,0-59.87,0Z"/>
</svg>