<?xml version="1.0" encoding="UTF-8"?>
<svg id="Layer_1" data-name="Layer 1" xmlns="http://www.w3.org/2000/svg" viewBox="0 0 1080 1080">
  <defs>
    <style>
      .cls-1 {
        stroke-width: 0px;
      }
    </style>
  </defs>
  <path class="cls-1" d="m811.05,23c7.52,4.16,15.82,7.36,22.38,12.7,13.46,10.94,17.52,26.25,17.5,43.19-.11,127.97-.06,255.94-.06,383.92,0,4.27,0,8.54,0,13.87,7.99,0,14.96-.05,21.93.01,8.2.07,12.58,4.37,12.59,12.46.08,55.76.08,111.51,0,167.27-.01,8.17-4.5,12.28-12.68,12.31-6.96.02-13.92,0-21.85,0,0,5.31,0,9.28,0,13.25,0,106.14.04,212.28-.03,318.42-.02,28.62-15.78,48.96-41.58,53.9-4.24.81-8.68.84-13.03.84-171.67.04-343.33.05-515,.02-33.2,0-54.25-20.81-54.36-53.97-.17-50.05-.05-100.09-.05-150.14,0-4.02,0-8.04,0-13.59-16.42,0-32.4,0-48.38,0-18.24,0-19.96-1.73-19.96-20.26,0-51.05-.02-102.11,0-153.16,0-15.74,2.43-18.14,18-18.16,16.38-.02,32.76,0,49.73,0v-96.19c-16.96,0-33.33.05-49.71-.02-13.52-.06-16.34-2.91-16.34-16.74-.02-117.9-.03-235.79,0-353.69,0-13.35,3.26-16.54,16.72-16.6,16.09-.07,32.19-.02,49.44-.02.18-4.09.46-7.63.47-11.17.04-21.5.96-43.04-.2-64.48-1.69-31.22,9.57-53.35,40.04-63.96,181.47,0,362.93,0,544.4,0ZM248.5,837.44c0,14.73-.02,28.12,0,41.51.04,23.77,10.75,34.71,34.27,34.71,170.69.03,341.38.03,512.07,0,23.53,0,34.34-10.97,34.34-34.64.02-66.18,0-132.36,0-198.54v-11.71c-5.14,0-9.11,0-13.08,0-81.31,0-162.63.01-243.94-.01-15.71,0-17.66-1.92-17.67-17.22-.03-52.41-.02-104.82,0-157.22,0-15.37,2.25-17.65,17.33-17.65,81.65-.01,163.3,0,244.95,0,3.9,0,7.8,0,12.41,0v-12.17c0-107.5,0-215.01,0-322.51,0-26.61-9.79-36.4-36.4-36.4-169.35,0-338.69,0-508.04,0-3.02,0-6.06-.09-9.07.1-13.36.85-24.93,10.21-26.46,23.39-1.25,10.82-.25,21.89-.25,33.52,4.83,0,8.82,0,12.81,0,69.22,0,138.43,0,207.65,0,15.64,0,18.49,2.74,18.49,17.91.02,117.25.02,234.49,0,351.74,0,14.84-2.63,17.39-17.73,17.4-69.89.02-139.78,0-209.67,0-3.85,0-7.69,0-11.38,0v95.9h12.51c70.22,0,140.45-.01,210.67,0,14.64,0,17.34,2.54,17.35,16.7.05,52.74.05,105.49,0,158.23-.01,14.2-2.86,16.93-17.22,16.94-70.56.02-141.12,0-211.68,0h-12.28Zm580.62,92.76c-13.97,1.73-26.72,4.65-39.47,4.68-161.55.31-323.1.26-484.64.13-18.88-.01-38.25,2.97-56.39-8.43,0,27.79-.33,53.96.15,80.12.23,12.23,9.29,22.81,20.69,25.69,3.84.97,7.99,1.04,12,1.05,171.96.05,343.92.04,515.88.03,1.68,0,3.36-.02,5.03-.15,14.52-1.14,26.25-12.08,26.59-26.7.6-26.15.17-52.33.17-76.43ZM182.71,184.66v226.58c10.59-10.79,19.68-20.16,28.9-29.41,31.31-31.37,62.63-62.73,94.02-94.02,8.28-8.26,12.77-8.15,21.16.03,2.88,2.81,5.63,5.77,8.51,8.58,16.31,15.88,32.63,31.74,49.81,48.44,8.83-9.02,17.88-18.39,27.07-27.62,9.47-9.49,13.7-9.51,23.31.28,9.53,9.7,18.78,19.67,28.15,29.52.67-.55,1.34-1.11,2.01-1.66v-160.73H182.71Zm134.64,123.37c-2.24,1.61-3.14,2.1-3.84,2.79-42.56,42.47-85.13,84.94-127.6,127.51-1.77,1.77-3.79,4.4-3.81,6.64-.26,27.45-.17,54.91-.17,82.86h284.33c0-21.42.31-42.2-.25-62.96-.12-4.39-2.38-9.75-5.47-12.88-34.94-35.37-70.26-70.35-105.41-105.52-12.56-12.57-24.91-25.35-37.78-38.46Zm150.1,507.61v-148.28H180.63v148.28h286.81Zm108.86-168.78h286.84v-147.93h-286.84v147.93ZM248.5,88.73c14.92-1.72,28.66-4.65,42.4-4.67,156.91-.32,313.83-.34,470.74-.05,22.48.04,45.62-4.42,66.93,8,3.62-31.8-4.87-48.06-42.29-47.74-124.98,1.09-249.98.41-374.98.41-44.02,0-88.03-.14-132.05.09-19.32.1-30.42,11.62-30.74,30.9-.08,5.02-.01,10.05-.01,13.06Zm153.98,268.59c21.79,22.27,43.04,44.01,63.82,65.25,0-12.05.08-25.42-.08-38.79-.02-2.19-.35-5.04-1.71-6.43-13.52-13.78-27.28-27.31-41.06-41-8.2,8.2-15.73,15.73-20.97,20.97Z"/>
  <path class="cls-1" d="m605.74,388.57c-1.3,18.53-2.38,19.54-20.45,19.55-10.08,0-20.16-.04-30.24,0-8.27.03-12.45-3.99-12.46-12.29,0-10.08-.02-20.16-.02-30.24,0-18.51.84-19.41,19.68-20.42v-128.04c-2.21-.19-4.74-.54-7.27-.59-8.19-.16-12.42-4.16-12.4-12.46.02-12.77-.04-25.53.03-38.3.04-7.78,4.06-11.78,11.87-11.8,12.1-.04,24.19-.1,36.29,0,10.99.09,13.9,3.08,14.52,14.45.09,1.62.24,3.23.4,5.26h128.28c.14-3.16.26-5.78.39-8.41.36-7.25,4.16-11.2,11.42-11.27,13.1-.14,26.21-.11,39.31-.02,7.82.05,11.72,4.36,11.8,11.99.13,12.76.29,25.54-.04,38.3-.25,9.65-3.75,11.76-19.54,12.6v128.04c2.56.2,5.42.44,8.29.64,7.2.53,11.16,4.42,11.26,11.59.18,13.1.2,26.21,0,39.3-.12,7.71-4.45,11.6-12.17,11.62-10.08.02-20.16.02-30.24.01-18.47,0-19.36-.82-20.54-19.55h-128.16Zm-20.29-171.5v127.93q17.89,1.39,20.92,20.41h127.19q1.97-18.43,20.63-20.73v-127.25q-16.87-2.15-21.28-20.62h-127.21c-1.11,18.04-1.93,18.86-20.26,20.26Zm-20.78-40.86v17.83h18.28v-17.83h-18.28Zm-.31,209.67h18.54v-17.96h-18.54v17.96Zm210.42-209.4h-18.23v17.65h18.23v-17.65Zm.02,191.64h-18.27v17.69h18.27v-17.69Z"/>
  <path class="cls-1" d="m786.49,815.57h-210.3c-.25,4.45-.34,8.4-.74,12.33-.66,6.49-5.03,10.43-10.82,9.02-3.83-.94-9.29-5.76-9.51-9.13-1.01-15.72-.65-31.54-.37-47.32.11-6.5,4.73-10.52,10.6-9.13,3.86.91,7.76,5.25,9.81,9.04,1.7,3.15.73,7.75.97,12.25h209.57c.29-4.26-.63-9.15,1.19-12.57,2-3.75,6.52-8.48,9.97-8.49,3.45-.02,9.71,5.08,9.92,8.24,1.03,16.05,1.04,32.24.04,48.29-.2,3.27-5.92,7.97-9.79,8.8-5.88,1.26-10.05-2.9-10.5-9.37-.25-3.63-.05-7.29-.05-11.99Z"/>
  <path class="cls-1" d="m539.95,972.01c19.47,0,38.93.11,58.4-.05,7.83-.06,14.78,1.33,14.7,10.82-.08,8.78-6.55,10.45-14.09,10.43-39.6-.11-79.21-.09-118.81,0-7.64.02-13.78-1.98-13.65-10.83.13-8.93,6.58-10.46,14.06-10.41,19.8.12,39.6.04,59.41.04Z"/>
  <path class="cls-1" d="m323.65,486.91c-13.06,0-26.12-.08-39.18.04-7.38.07-13.79-1.17-14.05-10.3-.26-9.06,5.83-11.02,13.37-11.02,26.79.02,53.58.03,80.38,0,7.17,0,13.05,2.1,13.16,10.31.12,8.68-5.71,11.11-13.48,11.01-13.39-.16-26.79-.04-40.19-.04Z"/>
  <path class="cls-1" d="m325.2,698.41c31.86,0,63.72-.29,95.57.32,4.66.09,10.99,3.38,13.45,7.19,3.94,6.11-1.11,12.99-9.25,13.95-4.97.59-10.05.26-15.07.27-59.02.01-118.04,0-177.06,0-3.02,0-6.05.08-9.05-.15-6.59-.51-11-4.05-10.95-10.74.06-7.15,4.52-10.83,11.77-10.83,19.79,0,39.57-.01,59.36-.01,13.75,0,27.5,0,41.25,0Z"/>
  <path class="cls-1" d="m264.4,760.48c12.72,0,25.43.09,38.15-.03,7.05-.07,12.03,2.6,12.29,10.07.27,8.04-4.86,11.11-12.32,11.11-25.77,0-51.54-.02-77.3,0-7.55,0-12.63-3.29-12.34-11.15.27-7.28,5.25-10.14,12.37-10.05,13.05.17,26.1.05,39.15.05Z"/>
  <path class="cls-1" d="m389.44,760.49c11.4,0,22.8.08,34.2-.03,6.84-.06,11.22,3.23,11.54,9.88.35,7.18-3.94,11.19-11.24,11.21-23.13.07-46.27.06-69.4-.03-6.75-.03-10.99-3.56-11.01-10.38-.02-7.38,4.47-10.7,11.71-10.67,11.4.05,22.8.01,34.2.02Z"/>
  <path class="cls-1" d="m719.54,551.25c-31.91,0-63.81-.06-95.72.05-7.7.03-14.76-.81-14.87-10.57-.11-9.71,6.96-11.04,14.61-11.04,64.48,0,128.97,0,193.45,0,7.41,0,13.96,1.91,13.98,10.75.02,8.67-5.98,11.18-13.72,10.82-2.01-.09-4.03-.01-6.04-.01-30.56,0-61.13,0-91.69,0Z"/>
  <path class="cls-1" d="m659.81,591.58c12.77,0,25.54-.01,38.3,0,7.45.01,12.54,2.98,12.4,11.15-.13,7.66-5.23,10.48-12.09,10.51-25.87.09-51.74.09-77.62,0-6.94-.03-11.89-3.11-11.91-10.69-.03-8.16,5.18-10.98,12.61-10.97,12.77.02,25.54,0,38.3,0Z"/>
  <path class="cls-1" d="m785.78,613.3c-11.04,0-22.07-.04-33.11.02-7.74.04-13.58-2.79-13.39-11.26.18-7.83,5.71-10.54,13.1-10.51,21.74.1,43.48.09,65.22.01,7.75-.03,13.55,2.65,13.39,11.2-.15,8-5.9,10.54-13.11,10.54-10.7,0-21.4,0-32.11,0Z"/>
  <path class="cls-1" d="m608.99,281.2c-.15-33.89,26.66-60.86,60.55-60.9,33.93-.04,60.94,26.76,60.99,60.54.05,33.87-26.85,60.93-60.6,60.94-33.96,0-60.79-26.66-60.94-60.57Zm99.91,1.24c.74-22.13-16.05-40.01-38.3-40.78-21.15-.74-39.41,16.43-40.37,37.94-.95,21.53,16.6,40.1,38.55,40.79,21.44.67,39.39-16.31,40.12-37.95Z"/>
</svg>