<?xml version="1.0" encoding="UTF-8"?>
<svg id="Layer_1" data-name="Layer 1" xmlns="http://www.w3.org/2000/svg" viewBox="0 0 384 384">
  <path d="m22.95,267.69c1.14-9.71,2.22-20.02,3.59-30.29,1.02-7.66.22-14.89-3.41-21.81-3.94-7.51-7.68-15.13-11.49-22.71-10.09-20.08-6.74-39.34,9.58-54.88,6.06-5.77,12.12-11.54,18.3-17.18,5.53-5.05,9.09-11.1,10.7-18.45,2.06-9.39,4.21-18.76,6.66-28.05,4.95-18.75,21.34-31.61,40.71-32.41,9.47-.39,18.93-.96,28.39-1.57,6.53-.42,12.27-2.98,17.47-6.93,7.75-5.88,15.45-11.85,23.42-17.44,15.02-10.54,34.46-10.55,49.48-.04,7.66,5.36,15.11,11.05,22.5,16.79,6.44,5.01,13.53,7.63,21.73,7.83,8.97.21,17.94.8,26.89,1.51,19.7,1.57,34.91,15.01,39.58,34.76,2.04,8.62,4.09,17.24,6.02,25.89,1.54,6.93,4.85,12.74,10.08,17.55,6.52,6,12.96,12.1,19.36,18.23,15.56,14.91,18.97,34.42,9.41,53.71-3.05,6.15-5.81,12.49-9.38,18.32-6.24,10.2-7.31,20.95-5.29,32.45,1.23,7,1.93,14.11,2.63,21.19,1.83,18.63-7.97,35.99-24.99,43.94-8.58,4.01-17.31,7.68-26.07,11.27-7.07,2.9-12.54,7.47-16.61,13.94-4.66,7.39-9.48,14.68-14.32,21.96-11.55,17.39-30.26,24.25-50.22,18.41-8.85-2.59-17.67-5.25-26.48-7.95-6.39-1.96-12.72-1.9-19.14-.01-10.86,3.21-21.61,7.14-32.69,9.19-17.53,3.25-31.92-3.23-42.45-17.55-5.61-7.63-10.6-15.74-15.66-23.76-4.14-6.57-9.62-11.32-16.82-14.25-8.19-3.34-16.34-6.8-24.39-10.46-17.37-7.9-26.13-21.62-27.06-41.23Zm12.04-.03c.41,14.22,6.64,24.16,19.04,29.9,8.36,3.87,16.9,7.37,25.41,10.92,9.17,3.82,16.3,9.93,21.61,18.33,4.94,7.81,9.94,15.58,15.18,23.19,8.08,11.71,21.12,16.35,34.83,12.49,8.87-2.5,17.7-5.15,26.49-7.93,9.34-2.96,18.59-3,27.93-.04,8.31,2.63,16.67,5.13,25.03,7.59,15.59,4.59,28.7-.24,37.63-13.82,4.74-7.2,9.5-14.37,14.11-21.65,5.39-8.53,12.74-14.56,22.05-18.38,8.3-3.4,16.55-6.93,24.73-10.62,13.26-5.99,20.33-18.24,18.89-32.65-.69-6.96-1.37-13.94-2.57-20.82-2.36-13.54-.97-26.27,6.16-38.31,3.68-6.21,6.64-12.86,9.84-19.35,7.1-14.36,4.64-28.13-7.01-39.22-6.96-6.63-14.01-13.17-20.95-19.83-5.81-5.59-9.63-12.39-11.53-20.22-2.31-9.58-4.33-19.24-6.82-28.78-3.49-13.35-11.96-21.95-25.72-23.9-9.72-1.38-19.63-1.67-29.46-2.01-10.2-.36-19.28-3.39-27.37-9.62-6.83-5.25-13.74-10.39-20.65-15.52-13.42-9.95-27.3-9.88-40.66.15-7.09,5.32-14.18,10.63-21.27,15.95-6,4.5-12.61,7.72-20.12,8.38-10.18.9-20.39,1.56-30.6,1.98-15.99.66-27.42,9.71-31.18,25.19-2.04,8.37-4.09,16.73-5.89,25.16-2.13,9.98-6.78,18.41-14.32,25.3-6.36,5.81-12.58,11.77-18.85,17.69-11.78,11.14-14.25,24.97-7.01,39.53,4,8.04,8.08,16.05,12.16,24.05,4.47,8.75,5.67,17.96,4.36,27.66-1.33,9.9-2.36,19.84-3.46,29.24Z"/>
  <path d="m191.71,69.26c67.6.23,122.39,55.2,122.32,122.72-.07,67.76-55.6,123.26-122.74,122.68-67.84-.59-122.5-55.6-122.13-122.91.37-67.82,55.29-122.71,122.55-122.48Zm.13,12c-60.59-.4-110.36,49.24-110.71,110.45-.35,60.76,49.08,110.53,110.21,110.95,60.58.42,110.3-49.18,110.72-110.46.41-60.71-49.09-110.53-110.22-110.94Z"/>
  <path d="m177.3,193.73c2.09-2.39,3.79-4.55,5.71-6.49,14.45-14.69,28.9-29.37,43.43-43.98,6.47-6.5,14.32-8.56,23.02-5.76,8.57,2.75,13.71,8.96,15.18,17.84,1.33,7.99-1.55,14.66-7.19,20.35-15.64,15.79-31.22,31.64-46.84,47.46-5.61,5.69-11.21,11.39-16.88,17.02-9.98,9.9-23.26,9.96-33.25.05-11.7-11.61-23.34-23.28-34.93-35-9.53-9.64-9.79-23.44-.75-32.5,9-9.02,22.88-8.73,32.44.76,6.54,6.5,12.98,13.1,20.05,20.26Zm75.79-33.65c-.36-5.44-2.13-8.56-5.74-10.5-4.42-2.38-8.89-1.43-13.15,2.87-17.14,17.3-34.25,34.64-51.39,51.95-4.56,4.61-6.99,4.59-11.62-.03-7.6-7.59-15.12-15.26-22.8-22.78-4.56-4.46-10.96-4.52-15.09-.42-4.21,4.17-4.26,10.51.26,15.1,11.83,12.02,23.75,23.95,35.73,35.81,4.83,4.78,10.8,4.77,15.61-.08,21.64-21.81,43.24-43.67,64.71-65.65,1.87-1.91,2.71-4.84,3.47-6.27Z"/>
</svg>