<?xml version="1.0" encoding="UTF-8"?>
<svg id="Layer_1" data-name="Layer 1" xmlns="http://www.w3.org/2000/svg" viewBox="0 0 384 384">
  <path d="m199.86,0c3.68,1.73,7.68,3,10.98,5.28,6.08,4.19,9.14,10.46,9.83,17.77.2,2.08.6,3.02,2.96,3.2,14.25,1.11,23.62,11.21,23.87,25.73.15,9,.08,18,0,27-.02,2.04.48,3.33,2.35,4.55,5.52,3.6,8.22,9.01,8.27,15.53.12,14.62.22,29.25-.02,43.87-.21,12.99-9.98,23.28-23.14,23.04-8.25-.15-13.86,1.65-18.31,9.01-2.61,4.31-7.03,7.9-11.37,10.66-4.46,2.84-4.95,6.47-4.44,10.79.24,2.03,1.11,3.99,1.8,6.35,1.21-.6,1.95-.94,2.67-1.33,4.88-2.66,9.99-3,14.59.06,9.52,6.34,19.72,11.02,30.59,14.42,2.59.81,5.06,2.12,7.47,3.4,3.16,1.69,4.17,4.69,2.78,7.55-1.38,2.83-4.37,3.84-7.63,2.53-5.08-2.03-10.19-4.01-15.22-6.17-2.35-1.01-3.84-.33-5.54,1.41-10.06,10.25-20.26,20.36-30.35,30.57-3.93,3.97-8.42,6.04-14.12,5.3-.89-.12-2.31.68-2.84,1.49-1.8,2.69-3.44,5.51-4.89,8.41-.56,1.11-.78,2.62-.57,3.85,4.8,27.66,9.69,55.31,14.62,83.36,1.36.06,2.68.17,4,.18,8.73.02,17.46,0,26.19.02,4.67.01,7.23,2.09,7.17,5.73-.05,3.53-2.48,5.5-6.97,5.5-61.62.01-123.24.06-184.86-.03-17.46-.02-30.69-12.94-30.87-30.42-.17-16.33-1.33-32.78,3.06-48.84,10.91-39.82,36.24-65.61,75.36-78.26,5.1-1.65,9.88-4.68,14.41-7.68,6.82-4.52,13.53-6.28,20.95-1.07,2.81-4.47,2.18-9.11,1.8-13.63-.07-.8-1.48-1.57-2.38-2.2-15.46-10.78-24.51-25.62-27.61-44.11-.4-2.38-1.15-3.15-3.5-3.11-3.1.05-6.3.12-9.29-.57-8.17-1.88-13.7-8.88-14-17.74-.25-7.49-.18-15-.01-22.49.15-6.68,3.1-11.91,8.63-15.79,1.06-.75,1.91-2.55,1.95-3.89.19-7.37.06-14.75.1-22.12.13-29.43,18.6-51.33,47.61-56.5.46-.08.88-.39,1.32-.59,24.2,0,48.41,0,72.61,0Zm-68.49,357.61c.17-.58.31-.92.37-1.27,4.27-24.09,8.23-48.24,12.95-72.24,1.57-8,2-15.13-3.59-21.62-.24-.28-.29-.79-.57-.95-.77-.44-1.69-1.18-2.43-1.06-6.19.99-10.8-1.63-14.97-5.89-9.7-9.9-19.63-19.58-29.26-29.54-2.19-2.26-4.05-2.56-6.86-1.58-31.69,11.14-52.82,32.6-63.02,64.69-5.57,17.53-4.28,35.62-3.59,53.56.3,7.87,7.68,15.1,15.81,15.72,9.26.71,18.62.16,28.35.16,0-1.5,0-2.83,0-4.17,0-7.12-.07-14.25.05-21.37.06-3.79,2.41-6.2,5.61-6.21,3.26,0,5.44,2.35,5.54,6.19.09,3.12.03,6.25.03,9.37,0,5.34,0,10.68,0,16.21h55.58Zm-27.16-247.61c.56,11.12.07,22.24,1.85,32.97,5.53,33.49,42.69,53.34,73.82,43.34,7.1-2.28,13.67-5.49,20.31-10.9-3.56,0-6.03.12-8.48-.02-8.66-.48-15.16-7.42-15.08-16,.08-8.55,6.81-15.29,15.52-15.47,3.62-.08,7.24.11,10.85-.05,5.63-.25,10.97.29,15.21,4.68,2.73-6.04,4.1-32.17,2.17-38.74-9.06-1.07-12.88-5.39-12.9-14.61,0-7.12.1-14.25-.03-21.37-.16-8.1-5.74-14.09-13.71-14.46-3.05-.14-6.23.37-9.19,1.17-10.1,2.74-20.29,4.15-30.69,2.48-5.39-.87-10.7-2.3-16.05-3.41-11.27-2.34-19.54,4.37-19.57,15.87-.02,6.5,0,13,0,19.5,0,9.52-3.62,13.67-14.03,15.02Zm2.8-11.06c0-2.29,0-3.63,0-4.98.02-7.49-.33-15.01.15-22.48,1.08-16.61,17.32-27.26,34.8-22.34,14.13,3.97,27.78,3.88,41.92-.02,20.04-5.52,35.87,8.6,34.89,26.97-.32,6.1-.08,12.24-.05,18.36,0,1.27.22,2.55.38,4.25,4.34-1.5,8.06-2.89,11.85-4.05,3.79-1.16,5.38-3.61,5.36-7.51-.07-11.62.05-23.24-.05-34.85-.08-9.1-5.19-14.33-14.25-14.9-7.4-.46-11.96-4.99-12.45-12.32-.56-8.42-6.15-13.79-14.61-13.81-20.57-.04-41.14-.12-61.71.03-20.98.15-39.74,15.13-42.56,35.98-1.88,13.87-.83,28.15-.91,42.24,0,1.25,1.08,3.17,2.15,3.65,4.71,2.08,9.6,3.73,15.08,5.79Zm75.79,258.66c-4.8-27.08-9.55-53.91-14.29-80.72h-11.28c-4.77,26.97-9.51,53.78-14.27,80.72h39.84Zm-46.07-162.55c-1.31,4.8-2.57,9.4-3.88,14.2,9.25,5.89,18.69,11.92,28.18,17.86.79.5,2.29.82,2.96.41,9.82-6.1,19.56-12.33,28.9-18.27-1.33-4.93-2.54-9.42-3.82-14.14-17.4,6.79-35,6.79-52.35-.06Zm16.51,40.69c-1.4-.98-2.38-1.72-3.41-2.37-8.93-5.68-17.88-11.34-26.8-17.03q-10.43-6.66-20.66.48c-.1.07-.17.18-.49.52,10.29,10.29,20.57,20.61,30.9,30.87,1.82,1.81,3.83,1.44,5.69-.12,4.78-3.99,9.55-7.99,14.77-12.35Zm70.94-18.52c-3.16-1.95-5.87-3.47-8.42-5.24-2.3-1.59-4.23-1.32-6.49.16-8.24,5.37-16.58,10.59-24.88,15.87-3.86,2.46-7.71,4.93-11.95,7.65,5.39,4.5,10.3,8.88,15.57,12.78,1.06.79,4.15.41,5.19-.59,10.33-9.93,20.42-20.11,30.99-30.62Zm-75.06,36.65c2.09,3.61,3.91,7.01,5.97,10.25,1.44,2.26,14.38,1.91,15.8-.38,1.96-3.17,3.77-6.44,5.77-9.89-4.64-3.88-9.19-7.67-13.78-11.5-4.64,3.89-9.03,7.56-13.76,11.52ZM79.8,96.06c-.34.68-.61.97-.62,1.26-.06,8.33-.43,16.68.09,24.98.13,2.06,2.83,4.86,4.96,5.65,2.67.98,5.98.24,9.25.24,0-7.04.05-13.75-.07-20.46-.01-.72-.83-1.85-1.51-2.08-5.1-1.72-9.33-4.51-12.11-9.59Zm167.13.53l-1.17-.31c-2.57,4.87-6.74,7.59-11.74,9.29-.73.25-1.67,1.31-1.68,2.01-.13,6.84-.08,13.68-.08,20.93,2.28,0,4.13.03,5.97,0,5.99-.12,8.61-2.76,8.68-8.78.05-4,.01-8,.01-12,0-3.71,0-7.41,0-11.12Zm-18.07,58.04c12.31,1.84,19.75-4.9,17.67-15.49-4.12.21-8.21.28-12.25.71-.98.1-2.41,1.23-2.65,2.15-1.09,4.06-1.83,8.22-2.76,12.63Zm-29.3,9.54c2.49,0,4.98.14,7.46-.04,2.73-.19,4.46-1.82,4.4-4.59-.06-2.75-1.74-4.33-4.57-4.35-4.72-.04-9.45-.02-14.17-.01-2.78,0-4.58,1.38-4.75,4.18-.18,3.03,1.68,4.59,4.55,4.79,2.35.16,4.72.03,7.08.02Z"/>
  <path d="m291.18,384c-7.28-2-14.81-3.35-21.78-6.13-30.94-12.31-50.86-46.21-46.89-79,4.22-34.9,30.17-62.62,63.6-67.94,44.21-7.04,83.81,22.73,89.48,67.27,5.18,40.64-25.29,79.96-65.88,85.06-.95.12-1.87.49-2.81.74h-15.72Zm73.56-77.23c-.06-36.31-29.49-65.79-65.67-65.77-36.19.02-65.61,29.52-65.63,65.81-.02,36.48,29.47,66.01,65.85,65.93,36.17-.08,65.5-29.65,65.45-65.97Z"/>
  <path d="m326.57,322c-6.02,0-11.6.02-17.18,0-7.64-.04-9.8-3.82-6-10.57,5.2-9.23,10.46-18.43,15.71-27.63.74-1.3,1.56-2.56,2.42-3.78,2.85-4.04,6.45-5.65,10.17-4.6,3.64,1.02,6.09,4.46,6.19,9.28.16,7.36.16,14.73.09,22.09-.02,2.31.26,3.69,2.87,4.71,1.58.62,3.29,3.36,3.23,5.09-.06,1.74-1.92,4.32-3.56,4.89-2.36.83-2.8,1.91-2.72,3.99.08,1.99.05,4-.08,5.99-.23,3.52-2.13,5.36-5.4,5.4-3.23.04-5.32-1.8-5.68-5.2-.17-1.61-.05-3.24-.06-4.86,0-1.46,0-2.92,0-4.79Zm.04-27.61c-.19-.07-.38-.13-.57-.2-3.02,5.31-6.04,10.61-9.27,16.28h9.84v-16.08Z"/>
  <path d="m274.41,327.33c5.11,0,9.54-.06,13.98.02,4.3.07,6.57,2,6.64,5.46.08,3.53-2.14,5.67-6.36,5.72-7.73.09-15.46,0-23.19-.02-2.86,0-5.58-.45-6.92-3.42-1.38-3.04.02-5.52,1.8-7.93,5.34-7.23,10.69-14.45,15.87-21.8,1.86-2.63,3.51-5.48,4.76-8.44,1.66-3.94-.09-7.75-3.8-9.28-3.78-1.55-7.84.21-9.53,4.16-.29.68-.39,1.46-.72,2.12-1.39,2.8-3.57,4.13-6.71,3.26-2.97-.82-4.5-3.54-3.9-6.71,1.89-9.93,12.53-16.63,22.46-14.13,10.25,2.58,16.73,13.09,13.24,22.76-1.96,5.43-5.27,10.42-8.36,15.37-2.68,4.29-5.89,8.24-9.26,12.86Z"/>
</svg>