<?xml version="1.0" encoding="UTF-8"?>
<svg id="Layer_1" data-name="Layer 1" xmlns="http://www.w3.org/2000/svg" viewBox="0 0 384 384">
  <path d="m104.8,384H16.47c-3.05-2.12-4.07-5.02-3.79-8.69.25-3.35-.02-6.75.08-10.12.4-12.39,5.15-22.82,14.59-30.84,3.47-2.94,7.52-5.19,11.29-7.75-15.76-18.27-6.94-44.35,16.01-50.26,0-1.17,0-2.41,0-3.65.03-13.78,6.95-20.69,20.74-20.69,10.73,0,21.45.03,32.18-.02,4.05-.02,6.58-1.91,6.87-5.39.25-3.04.05-6.11.05-9.84-2.92,2.77-5.3,5.02-7.45,7.06-2.98-2.84-5.67-5.4-8.55-8.14,6.47-6.49,12.84-12.86,19.64-19.68-14.75,0-28.83,0-42.9,0-6.86,0-8.59-1.74-8.59-8.64,0-66.22.02-132.45-.07-198.67,0-3.65.75-6.58,3.81-8.69h244.04c2.6,2.01,3.81,4.45,3.81,7.94-.09,66.72-.07,133.44-.07,200.16,0,5.88-1.99,7.88-7.84,7.89-13.34.02-26.69,0-40.03.01-1.03,0-2.07.13-3.92.26,6.86,6.94,13.15,13.31,19.42,19.66-2.45,2.51-5.1,5.23-8.88,9.12-2.06-2.79-4-5.43-5.95-8.06-.7,2.72-.71,4.83-.7,6.95.02,6.13,1.93,8.05,8.05,8.06,11.22.01,22.45-.07,33.67.03,10.28.09,17.93,7.76,18.16,18,.05,2.11,0,4.23,0,6.28,23.16,5.99,31.64,32.28,15.9,50.4.15.2.27.45.46.57.53.32,1.09.58,1.65.87,13.55,6.9,21.57,17.85,23.55,32.95.61,4.68.11,9.49.43,14.22.25,3.68-.76,6.57-3.79,8.7h-88.33c-3.05-2.12-4.07-5.02-3.79-8.7.25-3.36-.03-6.75.08-10.12.4-12.39,5.15-22.82,14.61-30.84,3.47-2.94,7.52-5.19,11.29-7.75-15.56-17.9-7.35-44.14,15.99-50.28,0-.92,0-1.91,0-2.9.05-7.88-1.46-9.4-9.34-9.4-10.23,0-20.46,0-30.69,0-12.51-.01-19.83-7.29-19.86-19.71,0-2.3,0-4.6,0-6.9-.39-.21-.79-.43-1.18-.64-1.96,2.56-3.92,5.11-5.93,7.72-3.34-3.34-6.02-6.02-9.04-9.03,6.44-6.44,12.81-12.8,19.27-19.27h-66.97c6.93,7,13.28,13.41,19.09,19.28-2.43,2.74-4.96,5.58-8.19,9.21-2.21-2.64-4.26-5.07-6.78-8.08v39.92c10.94,2.95,18.79,9.48,22.32,20.5,3.57,11.16.59,21.04-6.82,29.93.89.46,1.44.74,1.98,1.01,13.71,6.89,21.89,17.87,23.89,33.14.61,4.68.11,9.49.43,14.22.25,3.68-.76,6.57-3.79,8.7h-88.33c-3.05-2.12-4.07-5.02-3.79-8.7.25-3.36-.03-6.75.08-10.12.4-12.39,5.15-22.82,14.61-30.84,3.47-2.94,7.52-5.19,11.29-7.75-15.61-17.97-7.27-44.2,15.67-50.2v-39.04c-.35-.25-.71-.49-1.06-.74-1.99,2.56-3.97,5.12-5.46,7.03-3.26-2.97-6.07-5.53-8.97-8.17,6.34-6.33,12.65-12.64,19.28-19.26h-66.36c-.24.32-.48.64-.72.96,6.38,6.38,12.76,12.76,18.77,18.78-2.2,2.44-4.68,5.2-8.11,9.01-2.19-2.78-4.23-5.35-6.26-7.93-.68,2.98-.67,5.46-.68,7.94-.08,11.42-7.62,18.96-19.06,19.01-10.23.04-20.46,0-30.69,0-9.02,0-10.28,1.3-10.13,10.48.01.62.06,1.23.1,2.01,11.02,2.96,18.86,9.5,22.38,20.51,3.57,11.15.59,21.04-6.82,29.93.89.46,1.44.74,1.98,1.01,13.71,6.89,21.89,17.87,23.89,33.13.61,4.68.11,9.49.43,14.22.25,3.68-.76,6.57-3.79,8.7ZM306.11,60.23H78.87v143.48h227.24V60.23Zm-227.33-12.48h227.1V12.18H78.78v35.57Zm280.96,324.07c2.21-18.19-8.33-32.92-25.57-35.44-5.01-.73-10.2-.38-15.31-.36-19.5.11-33.1,16.14-30.27,35.8h71.15Zm-334.64-.03h71.16c2.12-18.26-8.37-32.91-25.61-35.41-5.14-.74-10.45-.4-15.68-.35-19.18.17-32.76,16.4-29.87,35.76Zm131.59-.05h71.64c0-2,.02-3.74,0-5.48-.19-15.37-10.45-27.71-25.7-29.79-6.72-.92-13.78-.95-20.49,0-17.08,2.42-27.02,16.53-25.45,35.26Zm-78.09-65.85c-.05-9.8-8.09-17.84-17.88-17.88-9.94-.04-18.08,8.13-18.03,18.1.05,9.79,8.1,17.85,17.88,17.88,9.93.04,18.09-8.15,18.03-18.1Zm113.87,18.1c9.78-.03,17.83-8.09,17.88-17.88.05-9.97-8.09-18.13-18.03-18.1-9.78.03-17.83,8.08-17.88,17.87-.05,9.96,8.1,18.14,18.03,18.11Zm131.76,0c9.78-.04,17.83-8.1,17.87-17.89.05-9.97-8.09-18.13-18.04-18.09-9.78.04-17.82,8.09-17.87,17.88-.05,9.96,8.1,18.14,18.04,18.1Z"/>
  <path d="m252.27,131.9c.04,33.13-26.91,60.13-59.98,60.1-32.9-.04-59.76-26.95-59.79-59.91-.03-33.16,26.87-60.11,59.97-60.08,32.9.03,59.75,26.93,59.79,59.89Zm-75.98,16.78h32.18c.47-3.2.98-6.71,1.51-10.38h-35.23c.56,3.77,1.06,7.2,1.53,10.38Zm-1.5-22.86h35.23c-.59-3.83-1.15-7.41-1.61-10.38h-32.13c-.45,3.12-.95,6.63-1.49,10.38Zm-24.57-17.67c-1.96,5.89-3.86,11.56-5.89,17.66h18.17c.68-4.45,1.34-8.73,2.03-13.19-4.56-1.42-9.03-2.82-14.31-4.46Zm12.29,30.07h-18.21c2.09,6.17,4.02,11.84,6,17.68,5.33-1.7,9.79-3.13,14.23-4.54-.7-4.57-1.36-8.85-2.01-13.14Zm78.01-12.34c-2.14-6.28-4.07-11.95-6.04-17.73-5.36,1.69-9.82,3.09-14.24,4.49.71,4.6,1.38,8.88,2.05,13.24h18.23Zm-18.26,12.29c-.67,4.42-1.33,8.71-2.01,13.2,4.51,1.43,8.98,2.84,14.27,4.51,1.98-5.88,3.88-11.57,5.94-17.71h-18.2Zm-18.92-34.65c.29-.41.58-.82.86-1.22-3.75-5.42-7.5-10.84-11.89-17.19-4.39,6.52-8.08,11.98-11.76,17.44.3.32.6.65.89.97h21.89Zm-21.96,57.02c-.27.34-.54.67-.8,1.01,3.7,5.45,7.4,10.89,11.42,16.81,5.19-5.69,9.16-11.02,12.04-17.82h-22.66Zm-6.16-72.48c-.31-.36-.62-.71-.94-1.07-5.23,3.43-10.45,6.85-15.68,10.28.16.39.32.78.49,1.17,3.05.86,6.11,1.72,9.15,2.58,2.43-4.52,4.71-8.75,6.98-12.97Zm50.41,10.42c.19-.43.38-.87.57-1.3-5.29-3.39-10.58-6.78-15.87-10.17-.26.35-.53.7-.79,1.04,2.31,4.29,4.63,8.58,7.02,13.02,3.15-.9,6.11-1.74,9.06-2.59Zm-57.41,64.44c-3.23.94-6.26,1.82-9.3,2.7l-.35,1.18c5.29,3.4,10.57,6.79,15.86,10.19l.8-1.03c-2.26-4.2-4.52-8.4-7.01-13.04Zm48.34,0c-2.48,4.61-4.75,8.82-7.43,13.8,6.94-2.42,12.1-6.02,17.29-10.99-3.74-1.06-6.69-1.9-9.86-2.81Z"/>
  <path d="m294.02,24.26v11.55h-89.35v-11.55h89.35Z"/>
  <path d="m138.66,35.74v-11.54h11.51v11.54h-11.51Z"/>
  <path d="m126.31,35.83h-11.51v-11.6h11.51v11.6Z"/>
  <path d="m102.37,35.84h-11.53v-11.62h11.53v11.62Z"/>
</svg>